<?xml version="1.0" encoding="UTF-8"?>
<!DOCTYPE svg PUBLIC "-//W3C//DTD SVG 1.1//EN" "http://www.w3.org/Graphics/SVG/1.1/DTD/svg11.dtd">
<!-- Creator: CorelDRAW X8 -->
<svg xmlns="http://www.w3.org/2000/svg" xml:space="preserve" width="2975mm" height="489.039mm" version="1.1" style="shape-rendering:geometricPrecision; text-rendering:geometricPrecision; image-rendering:optimizeQuality; fill-rule:evenodd; clip-rule:evenodd"
viewBox="0 0 297500 48904"
 xmlns:xlink="http://www.w3.org/1999/xlink">
 <defs>
  <style type="text/css">
   <![CDATA[
    .fil0 {fill:#2359A4;fill-rule:nonzero}
    .fil1 {fill:#FFA230;fill-rule:nonzero}
   ]]>
  </style>
 </defs>
 <g id="Слой_x0020_1">
  <metadata id="CorelCorpID_0Corel-Layer"/>
  <g id="_1830249789264">
   <path class="fil0" d="M33549 17214c0,4645 -1431,8331 -4295,11060 -2863,2728 -6482,4092 -10856,4092l-5681 0 0 -8793 3990 0c2119,0 3788,-609 5005,-1827 1218,-1217 1827,-2841 1827,-4870 0,-2254 -677,-3991 -2029,-5208 -1353,-1218 -2954,-1826 -4803,-1826 -1939,0 -3540,699 -4802,2096 -1263,1398 -1894,3450 -1894,6156l0 30438 -10011 0 0 -31723c0,-4690 1353,-8546 4059,-11567 2930,-3247 6989,-4870 12174,-4870 5502,0 9831,1691 12987,5073 2887,3112 4329,7035 4329,11769zm37069 21307l-4532 0 0 10011 -9740 0 0 -10011 -13528 0c-2119,0 -3777,-643 -4972,-1928 -1195,-1285 -1792,-2807 -1792,-4566 0,-1262 293,-2615 879,-4058 406,-992 970,-2074 1691,-3247l14069 -23538 9808 0 -16842 28273 10687 0 0 -13257 8793 -15016 947 0 0 28273 4532 0 0 9064z"/>
   <path class="fil1" d="M119060 34361c0,1308 -135,2559 -406,3754 -271,1195 -722,2356 -1353,3483 -1398,2571 -3292,4375 -5682,5412 -1758,767 -3900,1150 -6425,1150l-5817 0 0 -9470 4126 0c1307,0 2254,-113 2841,-338 946,-361 1690,-1128 2232,-2300 315,-767 473,-1646 473,-2638 0,-676 -56,-1251 -169,-1725 -113,-473 -327,-958 -643,-1454 -676,-1037 -1431,-1680 -2265,-1928 -835,-248 -2064,-372 -3687,-372l-2908 0 0 -8252 1488 0c1668,0 2931,-203 3788,-609 1713,-811 2570,-2254 2570,-4329 0,-1758 -485,-3077 -1454,-3956 -970,-880 -2154,-1319 -3552,-1319 -1623,0 -2908,473 -3855,1420 -1127,1127 -1691,2706 -1691,4735l0 32535 -10011 0 0 -32468c0,-4915 1409,-8759 4228,-11532 2818,-2774 6504,-4160 11059,-4160 4960,0 8838,1466 11634,4396 2435,2571 3652,5773 3652,9606 0,2344 -631,4396 -1894,6154 -721,1038 -1668,1939 -2840,2706 2209,1128 3855,2706 4938,4735 1082,2029 1623,4284 1623,6764zm53775 -9909c0,6798 -2379,12569 -7136,17327 -4757,4746 -10541,7125 -17350,7125 -6809,0 -12592,-2379 -17350,-7125 -4757,-4758 -7136,-10529 -7136,-17327 0,-6798 2379,-12570 7136,-17327 4758,-4746 10541,-7125 17350,-7125 6809,0 12593,2379 17350,7125 4757,4757 7136,10529 7136,17327zm-10011 0c0,-4047 -1398,-7508 -4194,-10394 -2795,-2875 -6222,-4318 -10281,-4318 -4058,0 -7485,1421 -10281,4250 -2796,2841 -4194,6325 -4194,10462 0,4047 1398,7508 4194,10394 2796,2874 6223,4317 10281,4317 4059,0 7486,-1420 10281,-4250 2796,-2841 4194,-6324 4194,-10461zm63110 0c0,6798 -2379,12569 -7136,17327 -4757,4746 -10541,7125 -17350,7125 -6809,0 -12592,-2379 -17350,-7125 -4757,-4758 -7136,-10529 -7136,-17327 0,-6798 2379,-12570 7136,-17327 4758,-4746 10541,-7125 17350,-7125 6809,0 12593,2379 17350,7125 4757,4757 7136,10529 7136,17327zm-10011 0c0,-4047 -1398,-7508 -4194,-10394 -2795,-2875 -6222,-4318 -10281,-4318 -4058,0 -7486,1421 -10281,4250 -2796,2841 -4194,6325 -4194,10462 0,4047 1398,7508 4194,10394 2795,2874 6223,4317 10281,4317 4059,0 7486,-1420 10281,-4250 2796,-2841 4194,-6324 4194,-10461zm48094 -23640l-5479 14429c-677,1703 -1285,2965 -1826,3777 -812,1161 -1872,2131 -3180,2897 2255,496 4126,1466 5614,2920 2526,2435 3789,6031 3789,10777l0 12548 -10011 0 0 -11804c0,-3630 -902,-6065 -2706,-7339 -1218,-856 -3111,-1285 -5682,-1285l-3246 0 0 20428 -10011 0 0 -47348 10011 0 0 18398 1285 0c1758,0 3224,-677 4397,-2018 901,-1037 1780,-2683 2637,-4927l4262 -11453 10146 0zm33483 34429c0,2615 -564,4869 -1691,6763 -1545,2616 -3732,4374 -6584,5276 -1804,586 -4340,880 -7587,880l-13629 0 0 -9470 12896 0c1905,0 3258,-135 4070,-406 1499,-496 2244,-1488 2244,-2976 0,-992 -384,-1916 -1151,-2773 -495,-541 -2231,-1782 -5208,-3721 -3156,-2074 -5456,-3675 -6899,-4802 -1984,-1578 -3405,-3089 -4261,-4532 -1128,-1849 -1691,-4013 -1691,-6493 0,-2615 654,-4915 1961,-6900 1488,-2299 3473,-3810 5953,-4532 1668,-495 4126,-743 7372,-743l12243 0 0 9469 -12987 0c-1352,0 -2300,113 -2840,338 -948,406 -1421,1173 -1421,2300 0,857 316,1669 947,2435 496,632 1105,1240 1826,1826 541,406 1849,1263 3923,2571 3337,2029 5784,3664 7339,4904 1556,1240 2717,2491 3484,3754 586,902 1014,1961 1285,3179 271,1217 406,2435 406,3653z"/>
  </g>
 </g>
</svg>
