<?xml version="1.0" encoding="UTF-8"?>
<!DOCTYPE svg PUBLIC "-//W3C//DTD SVG 1.1//EN" "http://www.w3.org/Graphics/SVG/1.1/DTD/svg11.dtd">
<!-- Creator: CorelDRAW X8 -->
<svg xmlns="http://www.w3.org/2000/svg" xml:space="preserve" width="66.5841mm" height="31.8046mm" version="1.1" style="shape-rendering:geometricPrecision; text-rendering:geometricPrecision; image-rendering:optimizeQuality; fill-rule:evenodd; clip-rule:evenodd"
viewBox="0 0 1335 638"
 xmlns:xlink="http://www.w3.org/1999/xlink">
 <defs>
  <style type="text/css">
   <![CDATA[
    .fil3 {fill:#FEFEFE}
    .fil0 {fill:#9D9E9E}
    .fil1 {fill:#2359A4}
    .fil2 {fill:#9D9E9E;fill-rule:nonzero}
    .fil4 {fill:#2359A4;fill-rule:nonzero}
    .fil5 {fill:#FFA230;fill-rule:nonzero}
   ]]>
  </style>
 </defs>
 <g id="Слой_x0020_1">
  <metadata id="CorelCorpID_0Corel-Layer"/>
  <path class="fil0" d="M1110 359l-75 5 -11 -16c-8,-12 -7,-19 -4,-25 3,-10 12,-16 30,-14 23,2 42,4 42,4l7 -20c2,-5 -6,-104 38,-71l-27 137z"/>
  <rect class="fil1" x="360" y="60" width="274" height="216"/>
  <rect class="fil1" transform="matrix(-0.695695 -0.56809 -0.56809 0.695695 956.489 297.988)" width="49.5362" height="106.811"/>
  <rect class="fil1" x="701" y="19" width="52.9773" height="550.079"/>
  <polygon class="fil1" points="784,342 788,332 742,311 737,320 "/>
  <polygon class="fil1" points="1192,419 857,419 798,409 786,438 794,513 1192,513 "/>
  <path class="fil1" d="M1291 326l-109 0 0 243 109 0c18,0 32,-14 32,-31l0 -181c0,-17 -14,-31 -32,-31z"/>
  <g>
   <path class="fil2" d="M1106 533l0 0 0 -5 1 -5 0 -6 1 -5 1 -5 2 -5 1 -5 2 -4 2 -5 2 -4 3 -5 3 -4 2 -4 3 -4 4 -4 3 -3 4 -4 3 -3 4 -3 4 -3 5 -3 4 -2 4 -3 5 -2 5 -2 4 -1 5 -2 5 -1 5 -1 5 -1 6 0 5 0 0 23 -4 0 -4 0 -4 1 -4 1 -4 1 -4 1 -4 1 -3 1 -4 2 -3 2 -3 2 -4 2 -3 2 -3 2 -3 3 -3 3 -2 3 -3 3 -2 3 -2 3 -2 3 -2 3 -2 4 -2 4 -1 3 -1 4 -2 4 0 4 -1 4 -1 4 0 4 0 4 0 0 -23 0zm103 105l0 0 -5 0 -6 -1 -5 -1 -5 0 -5 -2 -5 -1 -4 -2 -5 -2 -5 -2 -4 -2 -4 -2 -5 -3 -4 -3 -4 -3 -3 -4 -4 -3 -3 -4 -4 -3 -3 -4 -2 -4 -3 -5 -3 -4 -2 -5 -2 -4 -2 -5 -1 -5 -2 -5 -1 -5 -1 -5 0 -5 -1 -5 0 -6 23 0 0 4 0 5 1 4 1 4 0 4 2 3 1 4 1 4 2 4 2 3 2 3 2 4 2 3 2 3 3 3 2 3 3 3 3 2 3 2 3 3 4 2 3 2 3 2 4 1 3 2 4 1 4 1 4 1 4 1 4 0 4 0 4 1 0 0 0 23zm103 -105l0 0 0 6 -1 5 0 5 -1 5 -1 5 -2 5 -1 5 -2 5 -2 4 -2 5 -3 4 -3 5 -2 4 -4 4 -3 3 -3 4 -4 3 -3 4 -4 3 -4 3 -5 3 -4 2 -4 2 -5 2 -5 2 -4 2 -5 1 -5 2 -5 0 -5 1 -6 1 -5 0 0 -23 4 -1 4 0 4 0 4 -1 4 -1 4 -1 3 -1 4 -2 4 -1 3 -2 3 -2 4 -2 3 -3 3 -2 3 -2 3 -3 2 -3 3 -3 2 -3 2 -3 2 -4 2 -3 2 -3 2 -4 1 -4 1 -4 1 -3 1 -4 1 -4 1 -4 0 -5 0 -4 0 0 23 0zm-103 -104l0 0 5 0 6 0 5 1 5 1 5 1 5 2 4 1 5 2 5 2 4 3 4 2 5 3 4 3 4 3 3 3 4 4 3 3 3 4 4 4 2 4 3 4 3 5 2 4 2 5 2 4 1 5 2 5 1 5 1 5 0 6 1 5 0 5 -23 0 0 -4 0 -4 -1 -4 -1 -4 -1 -4 -1 -4 -1 -4 -1 -3 -2 -4 -2 -4 -2 -3 -2 -3 -2 -3 -2 -3 -3 -3 -2 -3 -3 -3 -3 -3 -3 -2 -3 -2 -4 -2 -3 -2 -3 -2 -4 -2 -4 -1 -3 -1 -4 -1 -4 -1 -4 -1 -4 -1 -4 0 -4 0 0 0 0 -23z"/>
   <path id="1" class="fil3" d="M1209 440c-51,0 -92,42 -92,93 0,52 41,93 92,93 51,0 91,-41 91,-93 0,-51 -40,-93 -91,-93z"/>
  </g>
  <polygon class="fil1" points="1185,55 1149,55 1147,67 1168,100 1185,100 "/>
  <polygon class="fil1" points="922,55 984,55 968,73 940,88 922,91 "/>
  <path class="fil1" d="M869 271c-64,52 -73,127 -68,131l44 33 24 -164z"/>
  <rect class="fil1" transform="matrix(0.274612 -0.594174 -0.594174 -0.274612 839.411 381.55)" width="49.5362" height="106.811"/>
  <path class="fil1" d="M882 256c28,-7 50,46 43,76 -2,6 -7,10 -9,17 -15,35 -39,69 -39,69l-31 -24 4 -60 16 -68 16 -10z"/>
  <path class="fil1" d="M851 292c-1,17 -49,129 -35,130l61 5 -23 -44 2 -43 -5 -48z"/>
  <g>
   <path class="fil4" d="M1167 102l17 0 0 317 -17 0 0 -317zm-20 -47l0 0 3 0 2 0 2 1 2 1 2 0 2 2 2 1 2 1 2 1 1 2 2 1 1 2 2 1 1 2 1 2 1 2 1 1 1 2 1 2 1 2 1 2 1 1 0 2 1 2 0 2 1 2 0 1 1 2 0 2 0 2 0 1 0 2 -17 0 0 -1 0 -1 -1 -1 0 -1 0 -1 0 -1 -1 -1 0 -2 0 -1 -1 -1 0 -2 -1 -1 -1 -1 0 -2 -1 -1 -1 -1 -1 -1 0 -2 -1 -1 -1 -1 -1 -1 -1 0 -1 -1 -1 -1 0 -1 -1 0 -1 -1 -1 0 -1 0 0 0 -1 0 -1 0 0 0 0 -18zm-137 17l0 -18 137 1 0 18 -137 -1zm-82 13l0 0 2 -2 1 -2 2 -2 2 -2 1 -2 2 -2 2 -2 2 -1 2 -2 2 -1 2 -1 2 -2 2 -1 2 -1 3 -1 2 -1 3 -1 2 -1 3 0 3 -1 2 -1 3 0 3 -1 3 0 4 0 3 -1 3 0 4 0 3 0 4 0 4 0 4 0 0 18 -4 0 -4 0 -3 0 -4 0 -3 0 -3 0 -3 0 -3 1 -2 0 -3 0 -2 1 -3 0 -2 1 -2 0 -2 1 -2 1 -1 0 -2 1 -2 1 -1 1 -2 0 -1 1 -2 1 -1 2 -1 1 -2 1 -1 1 -1 2 -1 1 -2 2 -1 1 -1 2 0 0 -15 -10zm-57 135l0 0 2 -6 2 -6 2 -7 2 -6 2 -5 2 -6 1 -6 2 -5 2 -5 2 -6 2 -5 2 -4 2 -5 2 -5 2 -4 1 -4 2 -4 2 -4 2 -4 2 -4 1 -3 2 -4 2 -3 2 -3 1 -3 2 -3 1 -3 2 -3 2 -2 1 -3 2 -2 1 -2 15 10 -2 2 -1 2 -1 2 -2 2 -1 3 -2 3 -1 2 -2 3 -1 3 -2 3 -2 3 -1 4 -2 3 -2 4 -2 4 -1 4 -2 4 -2 4 -2 5 -2 4 -1 5 -2 5 -2 5 -2 5 -2 5 -2 6 -2 5 -2 6 -2 6 -2 6 -1 6 -2 7 0 0 -17 -6zm-28 143l0 0 0 -2 0 -2 0 -3 0 -3 1 -2 0 -3 0 -4 0 -3 1 -3 0 -4 1 -4 0 -3 1 -4 0 -5 1 -4 1 -4 1 -5 1 -5 0 -5 2 -4 1 -6 1 -5 1 -5 1 -6 2 -5 1 -6 2 -6 1 -6 2 -6 2 -7 2 -6 2 -7 17 6 -2 6 -2 6 -2 6 -2 6 -1 6 -2 6 -1 6 -1 5 -2 6 -1 5 -1 5 -1 5 -1 5 -1 5 -1 4 -1 5 0 4 -1 4 -1 4 0 4 -1 4 0 3 -1 4 0 3 0 3 -1 3 0 3 0 2 0 3 0 2 0 2 0 2 0 0 -18 0zm31 80l0 0 0 -1 -1 -1 0 -2 -1 -2 -1 -1 -1 -2 -1 -3 -1 -2 -2 -2 -1 -3 -1 -3 -2 -2 -1 -3 -1 -3 -2 -3 -1 -3 -2 -3 -1 -3 -1 -3 -2 -3 -1 -3 -1 -3 -1 -3 -1 -3 -1 -3 -1 -3 -1 -3 0 -3 -1 -2 0 -3 0 -3 18 0 0 2 0 1 0 2 1 2 0 2 1 3 1 2 1 3 1 3 1 2 1 3 1 3 1 3 2 3 1 3 1 2 2 3 1 3 1 3 2 2 1 3 1 3 1 2 2 2 1 3 1 2 1 2 1 2 0 1 1 2 1 1 0 2 -17 5z"/>
  </g>
  <circle class="fil0" cx="1208" cy="533" r="69"/>
  <circle class="fil3" cx="1208" cy="533" r="40"/>
  <circle class="fil1" cx="1208" cy="533" r="19"/>
  <rect class="fil0" x="883" y="512" width="236.777" height="64.5053"/>
  <rect class="fil3" transform="matrix(-0.0698735 -0 0.398951 0.651213 1084.6 512.361)" width="328.066" height="84.0068"/>
  <g>
   <path class="fil4" d="M990 298l7 -7c2,2 2,5 0,7 -1,2 -5,2 -7,0zm-64 -58l7 -8 64 59 -7 7 -64 -58zm7 -8l-7 8c-2,-2 -2,-5 -1,-7 2,-2 5,-3 8,-1z"/>
  </g>
  <g>
   <polygon class="fil4" points="934,301 926,294 958,259 966,267 "/>
  </g>
  <path class="fil1" d="M1175 344l-103 0c-37,0 -70,31 -72,68l0 0c0,38 33,89 65,69l86 -55c32,-21 89,24 89,-14l0 0c2,-37 -28,-68 -65,-68z"/>
  <rect class="fil1" x="1190" y="119" width="11.5157" height="32.2468"/>
  <rect class="fil1" x="1200" y="127" width="6.91022" height="20.7305"/>
  <rect class="fil1" transform="matrix(-1.29364E-14 0.488452 0.450831 1.19401E-14 1178.3 137.314)" width="14.1472" height="45.9828"/>
  <rect class="fil3" x="452" y="83" width="89.899" height="57.1962"/>
  <rect class="fil1" x="348" y="287" width="306.25" height="40.5478"/>
  <rect class="fil3" x="518" y="305" width="113.982" height="12.9515"/>
  <rect class="fil3" x="373" y="305" width="123.121" height="12.9515"/>
  <g>
   <path class="fil4" d="M691 11l-22 0c0,-6 5,-11 11,-11 6,0 11,5 11,11zm0 254l0 1 -22 -1 0 -254 22 0 0 254zm-22 0l22 0c0,6 -5,11 -11,11 -6,0 -11,-5 -11,-11zm-12 17l0 0 1 0 1 0 1 -1 1 0 1 0 0 0 1 -1 0 0 0 0 1 -1 0 0 0 0 1 -1 0 0 0 0 0 -1 1 0 0 -1 0 0 0 -1 1 -1 0 0 0 -1 0 -1 0 -1 1 -1 0 -1 0 -1 0 -1 0 -1 0 -2 1 -1 22 3 0 1 0 2 0 1 0 1 -1 2 0 1 0 1 0 2 -1 1 0 2 -1 1 0 2 -1 1 0 1 -1 2 -1 1 0 2 -1 1 -1 2 -2 1 -1 1 -1 2 -2 1 -1 1 -2 1 -1 1 -2 1 -2 0 -2 1 -2 1 -2 0 -2 1 0 0 -4 -23zm-325 1l1 0 3 0 4 0 6 0 7 0 8 0 10 0 10 0 12 0 12 0 13 0 14 1 14 0 14 0 15 0 15 0 15 0 15 0 15 0 14 0 14 0 14 0 13 0 12 -1 11 0 10 0 10 0 8 0 6 0 6 0 3 -1 1 0 4 23 -3 0 -4 0 -6 1 -7 0 -8 0 -9 0 -11 0 -11 0 -12 0 -13 0 -14 0 -14 0 -14 1 -15 0 -15 0 -15 -1 -15 0 -15 0 -14 0 -14 0 -14 0 -13 0 -12 0 -12 0 -10 0 -10 0 -8 0 -7 0 -6 0 -4 0 -3 0 -1 0 0 -23zm0 0l0 23c-6,0 -11,-5 -11,-12 0,-6 5,-11 11,-11z"/>
  </g>
  <rect class="fil1" x="1313" y="383" width="22.3485" height="77.2141"/>
  <g>
   <path class="fil4" d="M170 468c0,24 -7,43 -21,56 -15,14 -33,21 -56,21l-28 0 0 -45 20 0c11,0 19,-3 25,-9 6,-6 10,-14 10,-25 0,-11 -4,-20 -11,-26 -7,-6 -15,-9 -24,-9 -10,0 -18,3 -25,10 -6,7 -9,18 -9,32l0 154 -51 0 0 -161c0,-24 7,-43 21,-59 15,-16 35,-24 61,-24 28,0 50,8 66,25 15,16 22,36 22,60zm175 108l-23 0 0 51 -49 0 0 -51 -69 0c-11,0 -19,-3 -25,-9 -7,-7 -10,-15 -10,-24 0,-6 2,-13 5,-20 2,-5 5,-11 8,-17l72 -119 50 0 -86 143 55 0 0 -67 44 -76 5 0 0 143 23 0 0 46z"/>
   <path class="fil5" d="M621 546c0,22 -3,39 -10,50 -6,10 -15,19 -27,26 -11,6 -23,9 -37,9 -10,0 -20,-2 -29,-5 -11,-5 -20,-12 -29,-21 -7,9 -16,15 -26,19 -11,5 -21,7 -32,7 -13,0 -25,-3 -36,-9 -15,-9 -26,-20 -31,-35 -5,-11 -7,-25 -7,-41l0 -159 51 0 0 151c0,11 1,18 2,23 2,8 6,14 12,17 2,2 5,3 7,3 2,0 4,1 6,1 5,0 10,-2 14,-4 5,-3 9,-7 11,-13 3,-5 4,-14 4,-27l0 -151 51 0 0 151c0,11 0,19 2,23 2,8 6,13 13,17 3,2 8,4 13,4 3,0 6,-1 7,-1 2,0 4,-1 6,-3 6,-3 10,-9 12,-17 2,-5 2,-13 2,-23l0 -151 51 0 0 159z"/>
  </g>
  <g>
   <path class="fil2" d="M669 515l0 0 0 -6 0 -6 1 -6 1 -7 1 -5 2 -6 2 -6 2 -6 3 -5 3 -5 3 -5 3 -5 3 -5 4 -5 4 -4 4 -5 5 -4 4 -3 5 -4 5 -3 5 -4 5 -3 5 -2 6 -3 6 -2 5 -2 6 -1 6 -2 6 -1 7 -1 6 0 6 0 0 28 -5 1 -4 0 -5 0 -5 1 -5 1 -4 2 -5 1 -4 2 -4 2 -4 2 -5 2 -3 2 -4 3 -4 3 -3 3 -4 3 -3 3 -3 4 -3 3 -2 4 -3 4 -2 4 -2 4 -2 4 -2 4 -1 4 -2 5 -1 4 -1 5 0 5 -1 4 0 5 0 0 -28 0zm124 123l0 0 -6 0 -6 -1 -7 -1 -6 -1 -6 -1 -6 -2 -5 -2 -6 -2 -6 -2 -5 -3 -5 -3 -5 -3 -5 -4 -5 -3 -4 -4 -5 -4 -4 -4 -4 -5 -4 -4 -3 -5 -3 -5 -3 -5 -3 -6 -3 -5 -2 -6 -2 -5 -2 -6 -1 -6 -1 -6 -1 -6 0 -6 0 -7 28 0 0 5 1 5 0 4 1 5 1 5 2 4 1 4 2 5 2 4 2 4 2 4 3 4 2 3 3 4 3 3 3 3 4 4 3 3 4 2 4 3 3 2 5 3 4 2 4 2 4 1 5 2 4 1 5 1 5 1 5 1 4 0 5 0 0 0 0 29zm125 -123l0 0 0 7 0 6 -1 6 -1 6 -2 6 -1 6 -2 5 -3 6 -2 5 -3 6 -3 5 -3 5 -4 5 -3 4 -4 5 -4 4 -5 4 -4 4 -5 3 -5 4 -5 3 -5 3 -6 3 -5 2 -6 2 -5 2 -6 2 -6 1 -7 1 -6 1 -6 1 -7 0 0 -29 5 0 5 0 5 -1 5 -1 5 -1 4 -1 5 -2 4 -1 4 -2 4 -2 4 -3 4 -2 4 -3 4 -2 3 -3 4 -4 3 -3 3 -3 3 -4 2 -3 3 -4 2 -4 2 -4 2 -4 2 -5 1 -4 2 -4 1 -5 1 -5 0 -4 0 -5 1 -5 0 0 28 0zm-125 -122l0 0 7 0 6 0 6 1 7 1 6 2 6 1 5 2 6 2 5 3 6 2 5 3 5 4 5 3 5 4 4 3 5 4 4 5 4 4 3 5 4 5 3 5 3 5 3 5 2 5 3 6 2 6 1 6 2 5 1 7 1 6 0 6 0 6 -28 0 -1 -5 0 -4 0 -5 -1 -5 -1 -4 -2 -5 -1 -4 -2 -4 -2 -4 -2 -4 -2 -4 -3 -4 -2 -4 -3 -3 -3 -4 -3 -3 -4 -3 -3 -3 -4 -3 -4 -3 -4 -2 -4 -2 -4 -2 -4 -2 -4 -2 -5 -1 -4 -2 -5 -1 -5 -1 -5 0 -5 0 -5 -1 0 0 0 -28z"/>
   <path id="1" class="fil3" d="M793 407c-61,0 -110,48 -110,108 0,60 49,108 110,108 61,0 111,-48 111,-108 0,-60 -50,-108 -111,-108z"/>
  </g>
  <circle class="fil0" cx="792" cy="515" r="89"/>
  <circle class="fil3" cx="792" cy="515" r="52"/>
  <circle class="fil1" cx="792" cy="515" r="24"/>
  <rect class="fil3" transform="matrix(-0.0698735 -0 0.398951 0.651213 1041.36 512.361)" width="328.066" height="84.0068"/>
  <rect class="fil3" transform="matrix(-0.0698735 -0 0.398951 0.651213 996.443 512.361)" width="328.066" height="84.0068"/>
  <rect class="fil3" transform="matrix(-0.0698735 -0 0.398951 0.651213 952.679 512.361)" width="328.066" height="84.0068"/>
  <polygon class="fil3" points="909,512 905,513 906,546 920,567 942,567 "/>
 </g>
</svg>
