<svg xmlns="http://www.w3.org/2000/svg" xmlns:xlink="http://www.w3.org/1999/xlink" width="256" zoomAndPan="magnify" viewBox="0 0 192 48" height="64" preserveAspectRatio="xMidYMid meet" version="1.0"><defs><g/><clipPath id="fa72ba5e4e"><path d="M 1.960938 0 L 190.039062 0 L 190.039062 47.019531 L 1.960938 47.019531 Z M 1.960938 0 " clip-rule="nonzero"/></clipPath><clipPath id="790e4d0543"><path d="M 33 14 L 53.089844 14 L 53.089844 26 L 33 26 Z M 33 14 " clip-rule="nonzero"/></clipPath><clipPath id="ff1220b28c"><path d="M 3.269531 20 L 23 20 L 23 32 L 3.269531 32 Z M 3.269531 20 " clip-rule="nonzero"/></clipPath></defs><g clip-path="url(#fa72ba5e4e)"><path fill="#ffffff" d="M 1.960938 0 L 190.039062 0 L 190.039062 47.019531 L 1.960938 47.019531 Z M 1.960938 0 " fill-opacity="1" fill-rule="nonzero"/><path fill="#939598" d="M 1.960938 0 L 190.039062 0 L 190.039062 47.019531 L 1.960938 47.019531 Z M 1.960938 0 " fill-opacity="1" fill-rule="nonzero"/></g><path fill="#f46109" d="M 50.296875 24.878906 C 33.128906 27.953125 32.304688 -0.726562 15.082031 15.550781 C 26.308594 11.417969 34.507812 41.1875 50.296875 24.878906 " fill-opacity="1" fill-rule="evenodd"/><path fill="#f67d0b" d="M 51.992188 23.308594 C 38.261719 25.769531 37.617188 2.839844 23.84375 15.859375 C 32.816406 12.546875 39.375 36.339844 51.992188 23.308594 " fill-opacity="1" fill-rule="evenodd"/><g clip-path="url(#790e4d0543)"><path fill="#faad0e" d="M 53.09375 22.285156 C 43.523438 23.996094 43.074219 8.015625 33.46875 17.089844 C 39.738281 14.792969 44.300781 31.367188 53.09375 22.285156 " fill-opacity="1" fill-rule="evenodd"/></g><path fill="#1b70ba" d="M 6.089844 20.695312 C 23.261719 17.621094 24.082031 46.304688 41.308594 30.023438 C 30.082031 34.15625 21.871094 4.398438 6.089844 20.695312 " fill-opacity="1" fill-rule="evenodd"/><path fill="#2490ea" d="M 4.386719 22.273438 C 18.117188 19.816406 18.773438 42.746094 32.542969 29.726562 C 23.5625 33.027344 17.003906 9.246094 4.386719 22.273438 " fill-opacity="1" fill-rule="evenodd"/><g clip-path="url(#ff1220b28c)"><path fill="#6db6f1" d="M 3.285156 23.289062 C 12.859375 21.578125 13.304688 37.558594 22.910156 28.488281 C 16.652344 30.792969 12.078125 14.21875 3.285156 23.289062 " fill-opacity="1" fill-rule="evenodd"/></g><g fill="#fbad48" fill-opacity="1"><g transform="translate(54.995475, 25.196438)"><g><path d="M 11.59375 -10.84375 C 11.59375 -9.320312 11.050781 -8.164062 9.96875 -7.375 C 8.894531 -6.59375 7.578125 -6.203125 6.015625 -6.203125 L 4.28125 -6.203125 L 4.28125 0 L 1.390625 0 L 1.390625 -14.171875 C 1.390625 -14.203125 1.335938 -14.410156 1.234375 -14.796875 C 1.140625 -15.179688 1.085938 -15.40625 1.078125 -15.46875 L 5.984375 -15.46875 C 7.671875 -15.46875 9.023438 -15.101562 10.046875 -14.375 C 11.078125 -13.644531 11.59375 -12.46875 11.59375 -10.84375 Z M 8.515625 -10.84375 C 8.515625 -11.625 8.304688 -12.238281 7.890625 -12.6875 C 7.484375 -13.144531 6.890625 -13.375 6.109375 -13.375 L 4.3125 -13.375 L 4.3125 -8.265625 L 6.078125 -8.265625 C 6.835938 -8.265625 7.429688 -8.5 7.859375 -8.96875 C 8.296875 -9.4375 8.515625 -10.0625 8.515625 -10.84375 Z M 8.515625 -10.84375 "/></g></g></g><g fill="#fbad48" fill-opacity="1"><g transform="translate(67.141073, 25.196438)"><g><path d="M 11.109375 -2.09375 L 10.515625 0.015625 L 8.84375 0.015625 L 8.84375 3.890625 L 6.203125 3.890625 L 6.203125 0.015625 L 0.046875 0.015625 L 0.046875 -1.203125 L 6.078125 -10.515625 L 8.84375 -10.515625 L 8.84375 -2.09375 Z M 6.203125 -2.09375 L 6.203125 -6.953125 L 3.0625 -2.09375 Z M 6.203125 -2.09375 "/></g></g></g><g fill="#fbad48" fill-opacity="1"><g transform="translate(77.639093, 25.196438)"><g/></g></g><g fill="#fbad48" fill-opacity="1"><g transform="translate(82.497329, 25.196438)"><g><path d="M 10.484375 -4.546875 C 10.484375 -3.046875 9.957031 -1.867188 8.90625 -1.015625 C 7.851562 -0.171875 6.566406 0.25 5.046875 0.25 C 3.117188 0.25 1.460938 -0.15625 0.078125 -0.96875 L 1.078125 -3.3125 C 2.171875 -2.289062 3.40625 -1.78125 4.78125 -1.78125 C 5.5 -1.78125 6.113281 -1.972656 6.625 -2.359375 C 7.132812 -2.753906 7.390625 -3.304688 7.390625 -4.015625 C 7.390625 -4.523438 7.21875 -4.972656 6.875 -5.359375 C 6.539062 -5.753906 6.125 -6.066406 5.625 -6.296875 C 5.125 -6.523438 4.578125 -6.789062 3.984375 -7.09375 C 3.398438 -7.394531 2.859375 -7.695312 2.359375 -8 C 1.859375 -8.3125 1.4375 -8.753906 1.09375 -9.328125 C 0.757812 -9.898438 0.59375 -10.554688 0.59375 -11.296875 C 0.59375 -12.753906 1.09375 -13.851562 2.09375 -14.59375 C 3.101562 -15.34375 4.445312 -15.71875 6.125 -15.71875 C 6.757812 -15.71875 7.488281 -15.585938 8.3125 -15.328125 C 9.144531 -15.078125 9.78125 -14.785156 10.21875 -14.453125 L 8.765625 -12.625 C 7.972656 -13.332031 7.003906 -13.6875 5.859375 -13.6875 C 5.265625 -13.6875 4.75 -13.53125 4.3125 -13.21875 C 3.882812 -12.914062 3.671875 -12.484375 3.671875 -11.921875 C 3.671875 -11.421875 3.835938 -10.984375 4.171875 -10.609375 C 4.515625 -10.242188 4.9375 -9.945312 5.4375 -9.71875 C 5.9375 -9.488281 6.484375 -9.21875 7.078125 -8.90625 C 7.671875 -8.601562 8.21875 -8.289062 8.71875 -7.96875 C 9.21875 -7.65625 9.632812 -7.203125 9.96875 -6.609375 C 10.3125 -6.015625 10.484375 -5.328125 10.484375 -4.546875 Z M 10.484375 -4.546875 "/></g></g></g><g fill="#fbad48" fill-opacity="1"><g transform="translate(93.396681, 25.196438)"><g><path d="M 15.171875 -7.703125 C 15.171875 -5.378906 14.5 -3.472656 13.15625 -1.984375 C 11.820312 -0.503906 10.003906 0.234375 7.703125 0.234375 C 5.410156 0.234375 3.617188 -0.515625 2.328125 -2.015625 C 1.046875 -3.515625 0.40625 -5.425781 0.40625 -7.75 C 0.40625 -10.09375 1.050781 -12.003906 2.34375 -13.484375 C 3.632812 -14.960938 5.429688 -15.703125 7.734375 -15.703125 C 10.085938 -15.703125 11.914062 -14.960938 13.21875 -13.484375 C 14.519531 -12.015625 15.171875 -10.085938 15.171875 -7.703125 Z M 12.046875 -7.625 C 12.046875 -8.375 11.972656 -9.082031 11.828125 -9.75 C 11.691406 -10.414062 11.46875 -11.054688 11.15625 -11.671875 C 10.84375 -12.285156 10.394531 -12.773438 9.8125 -13.140625 C 9.226562 -13.503906 8.539062 -13.6875 7.75 -13.6875 C 6.976562 -13.6875 6.300781 -13.515625 5.71875 -13.171875 C 5.144531 -12.828125 4.703125 -12.363281 4.390625 -11.78125 C 4.078125 -11.195312 3.847656 -10.578125 3.703125 -9.921875 C 3.566406 -9.265625 3.5 -8.570312 3.5 -7.84375 C 3.5 -7.09375 3.566406 -6.378906 3.703125 -5.703125 C 3.847656 -5.035156 4.078125 -4.394531 4.390625 -3.78125 C 4.703125 -3.175781 5.148438 -2.691406 5.734375 -2.328125 C 6.316406 -1.960938 7.003906 -1.78125 7.796875 -1.78125 C 8.566406 -1.78125 9.238281 -1.953125 9.8125 -2.296875 C 10.394531 -2.640625 10.84375 -3.101562 11.15625 -3.6875 C 11.46875 -4.269531 11.691406 -4.890625 11.828125 -5.546875 C 11.972656 -6.203125 12.046875 -6.894531 12.046875 -7.625 Z M 12.046875 -7.625 "/></g></g></g><g fill="#fbad48" fill-opacity="1"><g transform="translate(108.964168, 25.196438)"><g><path d="M 10.1875 -13.375 L 4.359375 -13.375 L 4.359375 -9 L 8.84375 -9 L 8.84375 -6.90625 L 4.359375 -6.90625 L 4.359375 0 L 1.421875 0 L 1.421875 -14.171875 C 1.421875 -14.191406 1.394531 -14.296875 1.34375 -14.484375 C 1.289062 -14.679688 1.238281 -14.882812 1.1875 -15.09375 C 1.144531 -15.3125 1.125 -15.4375 1.125 -15.46875 L 10.1875 -15.46875 Z M 10.1875 -13.375 "/></g></g></g><g fill="#fbad48" fill-opacity="1"><g transform="translate(119.736786, 25.196438)"><g><path d="M 11.9375 -13.375 L 7.578125 -13.375 L 7.578125 0 L 4.5625 0 L 4.5625 -13.375 L 0.28125 -13.375 L 0.28125 -15.46875 L 11.9375 -15.46875 Z M 11.9375 -13.375 "/></g></g></g><g fill="#fbad48" fill-opacity="1"><g transform="translate(131.94575, 25.196438)"><g><path d="M 19.1875 -15.46875 L 14.890625 0.046875 L 12.28125 0.046875 C 12.125 -0.492188 11.863281 -1.398438 11.5 -2.671875 C 11.144531 -3.941406 10.835938 -5.050781 10.578125 -6 C 10.328125 -6.957031 10.097656 -7.875 9.890625 -8.75 C 9.691406 -9.59375 9.550781 -10.378906 9.46875 -11.109375 C 9.28125 -9.867188 9.039062 -8.707031 8.75 -7.625 L 6.65625 0.046875 L 3.953125 0.046875 L -0.296875 -15.46875 L 2.625 -15.46875 C 4.101562 -10.113281 4.914062 -7.132812 5.0625 -6.53125 C 5.25 -5.769531 5.414062 -4.875 5.5625 -3.84375 C 5.6875 -4.757812 5.929688 -5.914062 6.296875 -7.3125 L 8.515625 -15.46875 L 10.96875 -15.46875 C 11.132812 -14.84375 11.394531 -13.90625 11.75 -12.65625 C 12.113281 -11.414062 12.425781 -10.296875 12.6875 -9.296875 C 12.957031 -8.304688 13.207031 -7.367188 13.4375 -6.484375 C 13.601562 -5.796875 13.75 -4.914062 13.875 -3.84375 C 14.039062 -5.050781 14.28125 -6.207031 14.59375 -7.3125 L 16.84375 -15.46875 Z M 19.1875 -15.46875 "/></g></g></g><g fill="#fbad48" fill-opacity="1"><g transform="translate(150.829515, 25.196438)"><g><path d="M 13.28125 0 L 10.15625 0 L 8.640625 -4.4375 L 4.078125 -4.4375 L 2.5 0 L 0.046875 0 L 5.515625 -15.46875 L 7.8125 -15.46875 Z M 7.9375 -6.5 C 7.257812 -8.570312 6.726562 -10.332031 6.34375 -11.78125 C 5.863281 -10.019531 5.347656 -8.257812 4.796875 -6.5 Z M 7.9375 -6.5 "/></g></g></g><g fill="#fbad48" fill-opacity="1"><g transform="translate(164.157985, 25.196438)"><g><path d="M 13.03125 0 L 9.734375 0 L 5.453125 -6.890625 L 4.28125 -6.890625 L 4.28125 0 L 1.390625 0 L 1.390625 -14.171875 C 1.390625 -14.203125 1.335938 -14.410156 1.234375 -14.796875 C 1.140625 -15.179688 1.085938 -15.40625 1.078125 -15.46875 L 6.375 -15.46875 C 7.9375 -15.46875 9.195312 -15.132812 10.15625 -14.46875 C 11.113281 -13.8125 11.59375 -12.734375 11.59375 -11.234375 C 11.59375 -10.359375 11.257812 -9.539062 10.59375 -8.78125 C 9.9375 -8.019531 9.171875 -7.535156 8.296875 -7.328125 Z M 8.53125 -11.265625 C 8.53125 -11.921875 8.296875 -12.429688 7.828125 -12.796875 C 7.367188 -13.160156 6.796875 -13.34375 6.109375 -13.34375 L 4.28125 -13.34375 L 4.28125 -8.953125 L 5.640625 -8.953125 C 7.566406 -8.953125 8.53125 -9.722656 8.53125 -11.265625 Z M 8.53125 -11.265625 "/></g></g></g><g fill="#fbad48" fill-opacity="1"><g transform="translate(176.641554, 25.196438)"><g><path d="M 10.8125 0 L 1.421875 0 L 1.421875 -14.171875 L 1.09375 -15.46875 L 10.8125 -15.46875 L 10.8125 -13.375 L 4.3125 -13.375 L 4.3125 -9 L 9.296875 -9 L 9.296875 -6.90625 L 4.3125 -6.90625 L 4.3125 -2.09375 L 10.8125 -2.09375 Z M 10.8125 0 "/></g></g></g><g fill="#fbad48" fill-opacity="1"><g transform="translate(64.00547, 39.296629)"><g><path d="M 2.53125 0.09375 C 2.132812 0.09375 1.789062 0.0234375 1.5 -0.109375 C 1.21875 -0.242188 0.984375 -0.421875 0.796875 -0.640625 C 0.609375 -0.867188 0.46875 -1.128906 0.375 -1.421875 C 0.28125 -1.722656 0.234375 -2.035156 0.234375 -2.359375 C 0.234375 -2.679688 0.28125 -2.988281 0.375 -3.28125 C 0.46875 -3.582031 0.609375 -3.84375 0.796875 -4.0625 C 0.984375 -4.289062 1.21875 -4.46875 1.5 -4.59375 C 1.789062 -4.726562 2.132812 -4.796875 2.53125 -4.796875 C 2.914062 -4.796875 3.25 -4.726562 3.53125 -4.59375 C 3.8125 -4.46875 4.035156 -4.285156 4.203125 -4.046875 C 4.378906 -3.816406 4.488281 -3.546875 4.53125 -3.234375 L 3.5625 -3.234375 C 3.519531 -3.484375 3.398438 -3.671875 3.203125 -3.796875 C 3.015625 -3.929688 2.78125 -4 2.5 -4 C 2.207031 -4 1.960938 -3.925781 1.765625 -3.78125 C 1.566406 -3.644531 1.414062 -3.453125 1.3125 -3.203125 C 1.21875 -2.960938 1.171875 -2.679688 1.171875 -2.359375 C 1.171875 -2.035156 1.21875 -1.75 1.3125 -1.5 C 1.414062 -1.25 1.566406 -1.050781 1.765625 -0.90625 C 1.960938 -0.769531 2.207031 -0.703125 2.5 -0.703125 C 2.78125 -0.703125 3.015625 -0.769531 3.203125 -0.90625 C 3.390625 -1.039062 3.507812 -1.25 3.5625 -1.53125 L 4.53125 -1.53125 C 4.488281 -1.207031 4.378906 -0.921875 4.203125 -0.671875 C 4.035156 -0.429688 3.8125 -0.242188 3.53125 -0.109375 C 3.25 0.0234375 2.914062 0.09375 2.53125 0.09375 Z M 2.53125 0.09375 "/></g></g></g><g fill="#fbad48" fill-opacity="1"><g transform="translate(72.628904, 39.296629)"><g><path d="M 3.296875 0 L 0.421875 0 L 0.421875 -4.703125 L 1.3125 -4.703125 L 1.3125 -0.796875 L 3.296875 -0.796875 Z M 3.296875 0 "/></g></g></g><g fill="#fbad48" fill-opacity="1"><g transform="translate(79.887623, 39.296629)"><g><path d="M 2.53125 0.09375 C 2.132812 0.09375 1.789062 0.0234375 1.5 -0.109375 C 1.21875 -0.242188 0.984375 -0.421875 0.796875 -0.640625 C 0.609375 -0.867188 0.46875 -1.128906 0.375 -1.421875 C 0.28125 -1.722656 0.234375 -2.035156 0.234375 -2.359375 C 0.234375 -2.679688 0.28125 -2.988281 0.375 -3.28125 C 0.46875 -3.582031 0.609375 -3.84375 0.796875 -4.0625 C 0.984375 -4.289062 1.21875 -4.46875 1.5 -4.59375 C 1.789062 -4.726562 2.132812 -4.796875 2.53125 -4.796875 C 2.914062 -4.796875 3.25 -4.726562 3.53125 -4.59375 C 3.820312 -4.46875 4.0625 -4.289062 4.25 -4.0625 C 4.4375 -3.84375 4.578125 -3.582031 4.671875 -3.28125 C 4.765625 -2.988281 4.8125 -2.679688 4.8125 -2.359375 C 4.8125 -2.035156 4.765625 -1.722656 4.671875 -1.421875 C 4.578125 -1.128906 4.4375 -0.867188 4.25 -0.640625 C 4.0625 -0.421875 3.820312 -0.242188 3.53125 -0.109375 C 3.25 0.0234375 2.914062 0.09375 2.53125 0.09375 Z M 2.53125 -0.703125 C 2.820312 -0.703125 3.066406 -0.769531 3.265625 -0.90625 C 3.460938 -1.050781 3.613281 -1.25 3.71875 -1.5 C 3.832031 -1.75 3.890625 -2.035156 3.890625 -2.359375 C 3.890625 -2.679688 3.832031 -2.960938 3.71875 -3.203125 C 3.613281 -3.453125 3.460938 -3.644531 3.265625 -3.78125 C 3.066406 -3.925781 2.820312 -4 2.53125 -4 C 2.238281 -4 1.988281 -3.925781 1.78125 -3.78125 C 1.582031 -3.644531 1.429688 -3.453125 1.328125 -3.203125 C 1.222656 -2.960938 1.171875 -2.679688 1.171875 -2.359375 C 1.171875 -2.035156 1.222656 -1.75 1.328125 -1.5 C 1.429688 -1.25 1.582031 -1.050781 1.78125 -0.90625 C 1.988281 -0.769531 2.238281 -0.703125 2.53125 -0.703125 Z M 2.53125 -0.703125 "/></g></g></g><g fill="#fbad48" fill-opacity="1"><g transform="translate(88.838341, 39.296629)"><g><path d="M 2.265625 0.09375 C 1.816406 0.09375 1.453125 0.0195312 1.171875 -0.125 C 0.898438 -0.28125 0.695312 -0.492188 0.5625 -0.765625 C 0.4375 -1.035156 0.375 -1.347656 0.375 -1.703125 L 0.375 -4.703125 L 1.265625 -4.703125 L 1.265625 -1.703125 C 1.265625 -1.515625 1.296875 -1.34375 1.359375 -1.1875 C 1.421875 -1.039062 1.523438 -0.921875 1.671875 -0.828125 C 1.816406 -0.742188 2.015625 -0.703125 2.265625 -0.703125 C 2.523438 -0.703125 2.726562 -0.742188 2.875 -0.828125 C 3.019531 -0.921875 3.125 -1.039062 3.1875 -1.1875 C 3.25 -1.34375 3.28125 -1.515625 3.28125 -1.703125 L 3.28125 -4.703125 L 4.171875 -4.703125 L 4.171875 -1.703125 C 4.171875 -1.347656 4.101562 -1.035156 3.96875 -0.765625 C 3.84375 -0.492188 3.640625 -0.28125 3.359375 -0.125 C 3.078125 0.0195312 2.710938 0.09375 2.265625 0.09375 Z M 2.265625 0.09375 "/></g></g></g><g fill="#fbad48" fill-opacity="1"><g transform="translate(97.276519, 39.296629)"><g><path d="M 1.796875 0 L 0.421875 0 L 0.421875 -4.703125 L 1.796875 -4.703125 C 2.585938 -4.703125 3.191406 -4.5 3.609375 -4.09375 C 4.035156 -3.6875 4.25 -3.101562 4.25 -2.34375 C 4.25 -1.59375 4.035156 -1.015625 3.609375 -0.609375 C 3.191406 -0.203125 2.585938 0 1.796875 0 Z M 1.3125 -3.90625 L 1.3125 -0.796875 L 1.78125 -0.796875 C 2.09375 -0.796875 2.367188 -0.84375 2.609375 -0.9375 C 2.847656 -1.039062 3.03125 -1.203125 3.15625 -1.421875 C 3.289062 -1.648438 3.359375 -1.957031 3.359375 -2.34375 C 3.359375 -2.71875 3.289062 -3.015625 3.15625 -3.234375 C 3.03125 -3.460938 2.847656 -3.628906 2.609375 -3.734375 C 2.378906 -3.847656 2.101562 -3.90625 1.78125 -3.90625 Z M 1.3125 -3.90625 "/></g></g></g><g fill="#fbad48" fill-opacity="1"><g transform="translate(105.659121, 39.296629)"><g/></g></g><g fill="#fbad48" fill-opacity="1"><g transform="translate(111.201142, 39.296629)"><g><path d="M 2.296875 0.09375 C 2.066406 0.09375 1.832031 0.0625 1.59375 0 C 1.363281 -0.0507812 1.148438 -0.140625 0.953125 -0.265625 C 0.753906 -0.390625 0.585938 -0.554688 0.453125 -0.765625 C 0.328125 -0.972656 0.25 -1.226562 0.21875 -1.53125 L 1.140625 -1.53125 C 1.191406 -1.3125 1.273438 -1.140625 1.390625 -1.015625 C 1.515625 -0.890625 1.65625 -0.800781 1.8125 -0.75 C 1.96875 -0.695312 2.128906 -0.671875 2.296875 -0.671875 C 2.535156 -0.671875 2.738281 -0.722656 2.90625 -0.828125 C 3.070312 -0.929688 3.15625 -1.097656 3.15625 -1.328125 C 3.15625 -1.484375 3.097656 -1.609375 2.984375 -1.703125 C 2.878906 -1.796875 2.742188 -1.867188 2.578125 -1.921875 C 2.410156 -1.972656 2.222656 -2.019531 2.015625 -2.0625 C 1.828125 -2.101562 1.632812 -2.148438 1.4375 -2.203125 C 1.238281 -2.253906 1.054688 -2.328125 0.890625 -2.421875 C 0.734375 -2.515625 0.609375 -2.640625 0.515625 -2.796875 C 0.421875 -2.960938 0.375 -3.164062 0.375 -3.40625 C 0.375 -3.71875 0.445312 -3.972656 0.59375 -4.171875 C 0.738281 -4.378906 0.9375 -4.535156 1.1875 -4.640625 C 1.4375 -4.742188 1.71875 -4.796875 2.03125 -4.796875 C 2.34375 -4.796875 2.628906 -4.738281 2.890625 -4.625 C 3.160156 -4.519531 3.382812 -4.359375 3.5625 -4.140625 C 3.75 -3.929688 3.867188 -3.65625 3.921875 -3.3125 L 3.015625 -3.3125 C 2.960938 -3.5625 2.84375 -3.742188 2.65625 -3.859375 C 2.46875 -3.972656 2.253906 -4.03125 2.015625 -4.03125 C 1.796875 -4.03125 1.613281 -3.984375 1.46875 -3.890625 C 1.320312 -3.804688 1.25 -3.671875 1.25 -3.484375 C 1.25 -3.335938 1.300781 -3.222656 1.40625 -3.140625 C 1.507812 -3.066406 1.640625 -3.003906 1.796875 -2.953125 C 1.960938 -2.898438 2.140625 -2.851562 2.328125 -2.8125 C 2.523438 -2.769531 2.722656 -2.71875 2.921875 -2.65625 C 3.128906 -2.601562 3.316406 -2.523438 3.484375 -2.421875 C 3.648438 -2.316406 3.785156 -2.179688 3.890625 -2.015625 C 3.992188 -1.847656 4.046875 -1.628906 4.046875 -1.359375 C 4.046875 -0.921875 3.890625 -0.566406 3.578125 -0.296875 C 3.273438 -0.0351562 2.847656 0.09375 2.296875 0.09375 Z M 2.296875 0.09375 "/></g></g></g><g fill="#fbad48" fill-opacity="1"><g transform="translate(119.386139, 39.296629)"><g><path d="M 2.53125 0.09375 C 2.132812 0.09375 1.789062 0.0234375 1.5 -0.109375 C 1.21875 -0.242188 0.984375 -0.421875 0.796875 -0.640625 C 0.609375 -0.867188 0.46875 -1.128906 0.375 -1.421875 C 0.28125 -1.722656 0.234375 -2.035156 0.234375 -2.359375 C 0.234375 -2.679688 0.28125 -2.988281 0.375 -3.28125 C 0.46875 -3.582031 0.609375 -3.84375 0.796875 -4.0625 C 0.984375 -4.289062 1.21875 -4.46875 1.5 -4.59375 C 1.789062 -4.726562 2.132812 -4.796875 2.53125 -4.796875 C 2.914062 -4.796875 3.25 -4.726562 3.53125 -4.59375 C 3.820312 -4.46875 4.0625 -4.289062 4.25 -4.0625 C 4.4375 -3.84375 4.578125 -3.582031 4.671875 -3.28125 C 4.765625 -2.988281 4.8125 -2.679688 4.8125 -2.359375 C 4.8125 -2.035156 4.765625 -1.722656 4.671875 -1.421875 C 4.578125 -1.128906 4.4375 -0.867188 4.25 -0.640625 C 4.0625 -0.421875 3.820312 -0.242188 3.53125 -0.109375 C 3.25 0.0234375 2.914062 0.09375 2.53125 0.09375 Z M 2.53125 -0.703125 C 2.820312 -0.703125 3.066406 -0.769531 3.265625 -0.90625 C 3.460938 -1.050781 3.613281 -1.25 3.71875 -1.5 C 3.832031 -1.75 3.890625 -2.035156 3.890625 -2.359375 C 3.890625 -2.679688 3.832031 -2.960938 3.71875 -3.203125 C 3.613281 -3.453125 3.460938 -3.644531 3.265625 -3.78125 C 3.066406 -3.925781 2.820312 -4 2.53125 -4 C 2.238281 -4 1.988281 -3.925781 1.78125 -3.78125 C 1.582031 -3.644531 1.429688 -3.453125 1.328125 -3.203125 C 1.222656 -2.960938 1.171875 -2.679688 1.171875 -2.359375 C 1.171875 -2.035156 1.222656 -1.75 1.328125 -1.5 C 1.429688 -1.25 1.582031 -1.050781 1.78125 -0.90625 C 1.988281 -0.769531 2.238281 -0.703125 2.53125 -0.703125 Z M 2.53125 -0.703125 "/></g></g></g><g fill="#fbad48" fill-opacity="1"><g transform="translate(128.33686, 39.296629)"><g><path d="M 3.296875 0 L 0.421875 0 L 0.421875 -4.703125 L 1.3125 -4.703125 L 1.3125 -0.796875 L 3.296875 -0.796875 Z M 3.296875 0 "/></g></g></g><g fill="#fbad48" fill-opacity="1"><g transform="translate(135.595582, 39.296629)"><g><path d="M 2.265625 0.09375 C 1.816406 0.09375 1.453125 0.0195312 1.171875 -0.125 C 0.898438 -0.28125 0.695312 -0.492188 0.5625 -0.765625 C 0.4375 -1.035156 0.375 -1.347656 0.375 -1.703125 L 0.375 -4.703125 L 1.265625 -4.703125 L 1.265625 -1.703125 C 1.265625 -1.515625 1.296875 -1.34375 1.359375 -1.1875 C 1.421875 -1.039062 1.523438 -0.921875 1.671875 -0.828125 C 1.816406 -0.742188 2.015625 -0.703125 2.265625 -0.703125 C 2.523438 -0.703125 2.726562 -0.742188 2.875 -0.828125 C 3.019531 -0.921875 3.125 -1.039062 3.1875 -1.1875 C 3.25 -1.34375 3.28125 -1.515625 3.28125 -1.703125 L 3.28125 -4.703125 L 4.171875 -4.703125 L 4.171875 -1.703125 C 4.171875 -1.347656 4.101562 -1.035156 3.96875 -0.765625 C 3.84375 -0.492188 3.640625 -0.28125 3.359375 -0.125 C 3.078125 0.0195312 2.710938 0.09375 2.265625 0.09375 Z M 2.265625 0.09375 "/></g></g></g><g fill="#fbad48" fill-opacity="1"><g transform="translate(144.033763, 39.296629)"><g><path d="M 2.390625 0 L 1.5 0 L 1.5 -3.90625 L 0.0625 -3.90625 L 0.0625 -4.703125 L 3.828125 -4.703125 L 3.828125 -3.90625 L 2.390625 -3.90625 Z M 2.390625 0 "/></g></g></g><g fill="#fbad48" fill-opacity="1"><g transform="translate(151.811195, 39.296629)"><g><path d="M 1.3125 0 L 0.421875 0 L 0.421875 -4.703125 L 1.3125 -4.703125 Z M 1.3125 0 "/></g></g></g><g fill="#fbad48" fill-opacity="1"><g transform="translate(157.427318, 39.296629)"><g><path d="M 2.53125 0.09375 C 2.132812 0.09375 1.789062 0.0234375 1.5 -0.109375 C 1.21875 -0.242188 0.984375 -0.421875 0.796875 -0.640625 C 0.609375 -0.867188 0.46875 -1.128906 0.375 -1.421875 C 0.28125 -1.722656 0.234375 -2.035156 0.234375 -2.359375 C 0.234375 -2.679688 0.28125 -2.988281 0.375 -3.28125 C 0.46875 -3.582031 0.609375 -3.84375 0.796875 -4.0625 C 0.984375 -4.289062 1.21875 -4.46875 1.5 -4.59375 C 1.789062 -4.726562 2.132812 -4.796875 2.53125 -4.796875 C 2.914062 -4.796875 3.25 -4.726562 3.53125 -4.59375 C 3.820312 -4.46875 4.0625 -4.289062 4.25 -4.0625 C 4.4375 -3.84375 4.578125 -3.582031 4.671875 -3.28125 C 4.765625 -2.988281 4.8125 -2.679688 4.8125 -2.359375 C 4.8125 -2.035156 4.765625 -1.722656 4.671875 -1.421875 C 4.578125 -1.128906 4.4375 -0.867188 4.25 -0.640625 C 4.0625 -0.421875 3.820312 -0.242188 3.53125 -0.109375 C 3.25 0.0234375 2.914062 0.09375 2.53125 0.09375 Z M 2.53125 -0.703125 C 2.820312 -0.703125 3.066406 -0.769531 3.265625 -0.90625 C 3.460938 -1.050781 3.613281 -1.25 3.71875 -1.5 C 3.832031 -1.75 3.890625 -2.035156 3.890625 -2.359375 C 3.890625 -2.679688 3.832031 -2.960938 3.71875 -3.203125 C 3.613281 -3.453125 3.460938 -3.644531 3.265625 -3.78125 C 3.066406 -3.925781 2.820312 -4 2.53125 -4 C 2.238281 -4 1.988281 -3.925781 1.78125 -3.78125 C 1.582031 -3.644531 1.429688 -3.453125 1.328125 -3.203125 C 1.222656 -2.960938 1.171875 -2.679688 1.171875 -2.359375 C 1.171875 -2.035156 1.222656 -1.75 1.328125 -1.5 C 1.429688 -1.25 1.582031 -1.050781 1.78125 -0.90625 C 1.988281 -0.769531 2.238281 -0.703125 2.53125 -0.703125 Z M 2.53125 -0.703125 "/></g></g></g><g fill="#fbad48" fill-opacity="1"><g transform="translate(166.378039, 39.296629)"><g><path d="M 1.3125 0 L 0.421875 0 L 0.421875 -4.703125 L 1.421875 -4.703125 L 3.34375 -1.34375 L 3.34375 -4.703125 L 4.234375 -4.703125 L 4.234375 0 L 3.234375 0 L 1.3125 -3.375 Z M 1.3125 0 "/></g></g></g><g fill="#fbad48" fill-opacity="1"><g transform="translate(174.927371, 39.296629)"><g><path d="M 2.296875 0.09375 C 2.066406 0.09375 1.832031 0.0625 1.59375 0 C 1.363281 -0.0507812 1.148438 -0.140625 0.953125 -0.265625 C 0.753906 -0.390625 0.585938 -0.554688 0.453125 -0.765625 C 0.328125 -0.972656 0.25 -1.226562 0.21875 -1.53125 L 1.140625 -1.53125 C 1.191406 -1.3125 1.273438 -1.140625 1.390625 -1.015625 C 1.515625 -0.890625 1.65625 -0.800781 1.8125 -0.75 C 1.96875 -0.695312 2.128906 -0.671875 2.296875 -0.671875 C 2.535156 -0.671875 2.738281 -0.722656 2.90625 -0.828125 C 3.070312 -0.929688 3.15625 -1.097656 3.15625 -1.328125 C 3.15625 -1.484375 3.097656 -1.609375 2.984375 -1.703125 C 2.878906 -1.796875 2.742188 -1.867188 2.578125 -1.921875 C 2.410156 -1.972656 2.222656 -2.019531 2.015625 -2.0625 C 1.828125 -2.101562 1.632812 -2.148438 1.4375 -2.203125 C 1.238281 -2.253906 1.054688 -2.328125 0.890625 -2.421875 C 0.734375 -2.515625 0.609375 -2.640625 0.515625 -2.796875 C 0.421875 -2.960938 0.375 -3.164062 0.375 -3.40625 C 0.375 -3.71875 0.445312 -3.972656 0.59375 -4.171875 C 0.738281 -4.378906 0.9375 -4.535156 1.1875 -4.640625 C 1.4375 -4.742188 1.71875 -4.796875 2.03125 -4.796875 C 2.34375 -4.796875 2.628906 -4.738281 2.890625 -4.625 C 3.160156 -4.519531 3.382812 -4.359375 3.5625 -4.140625 C 3.75 -3.929688 3.867188 -3.65625 3.921875 -3.3125 L 3.015625 -3.3125 C 2.960938 -3.5625 2.84375 -3.742188 2.65625 -3.859375 C 2.46875 -3.972656 2.253906 -4.03125 2.015625 -4.03125 C 1.796875 -4.03125 1.613281 -3.984375 1.46875 -3.890625 C 1.320312 -3.804688 1.25 -3.671875 1.25 -3.484375 C 1.25 -3.335938 1.300781 -3.222656 1.40625 -3.140625 C 1.507812 -3.066406 1.640625 -3.003906 1.796875 -2.953125 C 1.960938 -2.898438 2.140625 -2.851562 2.328125 -2.8125 C 2.523438 -2.769531 2.722656 -2.71875 2.921875 -2.65625 C 3.128906 -2.601562 3.316406 -2.523438 3.484375 -2.421875 C 3.648438 -2.316406 3.785156 -2.179688 3.890625 -2.015625 C 3.992188 -1.847656 4.046875 -1.628906 4.046875 -1.359375 C 4.046875 -0.921875 3.890625 -0.566406 3.578125 -0.296875 C 3.273438 -0.0351562 2.847656 0.09375 2.296875 0.09375 Z M 2.296875 0.09375 "/></g></g></g></svg>