<?xml version="1.0" encoding="UTF-8" standalone="no"?><!DOCTYPE svg PUBLIC "-//W3C//DTD SVG 1.1//EN" "http://www.w3.org/Graphics/SVG/1.1/DTD/svg11.dtd"><svg width="100%" height="100%" viewBox="0 0 35084 16617" version="1.1" xmlns="http://www.w3.org/2000/svg" xmlns:xlink="http://www.w3.org/1999/xlink" xml:space="preserve" xmlns:serif="http://www.serif.com/" style="fill-rule:evenodd;clip-rule:evenodd;stroke-linecap:round;stroke-linejoin:round;stroke-miterlimit:2;"><g><rect x="24815.7" y="7785.62" width="6655.66" height="2610.54" style="fill:#2359a4;"/><rect x="24768.7" y="6727.33" width="6772.91" height="910.375" style="fill:#9d9e9e;"/><path d="M24869.3,7537.1l6571.69,0l-0,-709.154l-6571.69,-0l0,709.154Zm6772.91,201.221l-6974.13,-0l0,-1111.59l6974.13,0l-0,1111.59Z" style="fill:#fefefe;fill-rule:nonzero;"/><rect x="20464.9" y="9643.6" width="1128.85" height="1340.53" style="fill:#2359a4;"/><path d="M20464.9,9714.16l-94.092,-70.558l94.092,-70.558l1128.85,-0l0,141.116l-1128.85,0Zm-94.092,-70.558l0,-70.558l94.092,-0l-94.092,70.558Zm188.139,1340.53l-94.092,70.563l-94.096,-70.563l0,-1340.53l188.141,-0l0,1340.53l0.047,-0Zm-94.047,70.563l-94.092,-0l0,-70.563l94.092,70.563Zm1128.85,-141.072l117.583,70.559l-117.583,70.558l-1128.85,0l-0,-141.117l1128.85,0Zm117.583,70.509l-0,70.563l-117.583,-0l117.583,-70.563Zm-211.63,-1340.53l94.096,-70.558l117.58,70.558l0,1340.53l-211.676,-0l0,-1340.53Zm94.047,-70.558l117.583,-0l-0,70.558l-117.583,-70.558Z" style="fill:#fefefe;fill-rule:nonzero;"/><path d="M20770.6,7644.56l94.096,-188.142c47.021,23.533 70.559,94.092 23.533,164.603c-23.533,47.026 -70.559,70.559 -117.582,23.539l-0.047,-0Zm-3574.79,-2798.64l-0,-211.679l117.582,-0l3551.25,2822.18l-94.096,188.142l-3574.78,-2798.69l0.047,0.05Zm117.629,-211.679l-117.58,211.679c-47.026,-23.537 -47.026,-117.583 -23.538,-164.605c23.538,-47.024 94.096,-70.562 141.118,-47.024l-0,-0.05Zm-3457.2,3010.32l-117.584,-188.142l3457.16,-2822.18l117.582,211.679l-3457.15,2798.68l-0,-0.045Zm-117.584,-188.142l117.584,188.142c-47.025,47.02 -117.584,23.533 -141.121,-23.539c-47.02,-70.557 -23.533,-141.116 23.537,-164.603Z" style="fill:#9d9e9e;fill-rule:nonzero;"/><path d="M21640.8,7644.56l117.582,-188.142c70.558,23.533 94.096,94.092 47.025,164.603c-47.025,47.026 -117.582,70.559 -164.607,23.539Zm-4468.47,-2798.64l0,-211.679l141.118,-0l4444.94,2822.18l-117.582,188.142l-4468.47,-2798.69l0,0.05Zm141.118,-211.679l-141.118,211.679c-47.025,-23.537 -70.558,-117.583 -47.025,-164.605c47.025,-47.024 117.584,-70.562 188.143,-47.024l-0,-0.05Zm-4327.35,3010.32l-141.121,-188.142l4327.35,-2822.18l141.118,211.679l-4327.35,2798.68l-0,-0.045Zm-141.121,-188.142l141.121,188.142c-70.558,47.02 -141.121,23.533 -188.142,-23.539c-23.537,-70.557 -23.537,-141.116 47.021,-164.603Z" style="fill:#9d9e9e;fill-rule:nonzero;"/><rect x="12821.5" y="7526.97" width="8983.97" height="3645.3" style="fill:#2359a4;"/><rect x="21123.4" y="7973.81" width="164.606" height="2234.21" style="fill:#fefefe;"/><path d="M21123.4,8020.84l-47.023,-47.024l47.023,-23.534l164.606,-0l0,70.558l-164.606,0Zm-47.07,-47.024l0,-23.534l47.022,-0l-47.022,23.534Zm117.584,2234.21l-70.562,23.533l-47.022,-23.533l0,-2234.21l117.584,-0l0,2234.21Zm-70.514,23.533l-47.023,0l-0,-23.533l47.023,23.533Zm164.606,-70.558l47.024,47.025l-47.024,23.533l-164.606,0l0,-70.558l164.606,0Zm47.024,47.025l-0,23.533l-47.024,0l47.024,-23.533Zm-117.582,-2234.21l70.558,-23.534l47.024,23.534l-0,2234.21l-117.582,0l-0,-2234.21Zm70.558,-23.534l47.024,-0l-0,23.534l-47.024,-23.534Z" style="fill:#fefefe;fill-rule:nonzero;"/><rect x="20535.4" y="7973.81" width="141.117" height="2234.21" style="fill:#fefefe;"/><path d="M20535.4,8020.84l-47.026,-47.024l47.026,-23.534l141.117,-0l0,70.558l-141.117,0Zm-47.075,-47.024l0,-23.534l47.024,-0l-47.024,23.534Zm94.096,2234.21l-47.021,23.533l-47.026,-23.533l0,-2234.21l94.096,-0l0,2234.21l-0.049,0Zm-47.021,23.533l-47.026,0l0,-23.533l47.026,23.533Zm141.117,-70.558l70.559,47.025l-70.559,23.533l-141.117,0l-0,-70.558l141.117,0Zm70.508,47.025l-0,23.533l-70.559,0l70.559,-23.533Zm-117.58,-2234.21l47.021,-23.534l70.559,23.534l-0,2234.21l-117.58,0l-0,-2234.21Zm47.072,-23.534l70.559,-0l-0,23.534l-70.559,-23.534Z" style="fill:#fefefe;fill-rule:nonzero;"/><rect x="19947.5" y="7973.81" width="141.115" height="2234.21" style="fill:#fefefe;"/><path d="M19947.5,8020.84l-70.559,-47.024l70.559,-23.534l141.115,-0l0,70.558l-141.115,0Zm-70.559,-47.024l0,-23.534l70.559,-0l-70.559,23.534Zm117.582,2234.21l-47.023,23.533l-70.559,-23.533l0,-2234.21l117.582,-0l0,2234.21Zm-47.023,23.533l-70.559,0l0,-23.533l70.559,23.533Zm141.115,-70.558l47.026,47.025l-47.026,23.533l-141.115,0l-0,-70.558l141.115,0Zm47.026,47.025l-0,23.533l-47.026,0l47.026,-23.533Zm-94.096,-2234.21l47.025,-23.534l47.022,23.534l-0,2234.21l-94.096,0l0,-2234.21l0.049,-0Zm47.07,-23.534l47.026,-0l-0,23.534l-47.026,-23.534Z" style="fill:#fefefe;fill-rule:nonzero;"/><rect x="19336" y="7973.81" width="141.117" height="2234.21" style="fill:#fefefe;"/><path d="M19336,8020.84l-47.024,-47.024l47.024,-23.534l141.117,-0l0,70.558l-141.117,0Zm-47.024,-47.024l0,-23.534l47.024,-0l-47.024,23.534Zm94.096,2234.21l-47.025,23.533l-47.022,-23.533l0,-2234.21l94.092,-0l0,2234.21l-0.045,0Zm-47.072,23.533l-47.024,0l0,-23.533l47.024,23.533Zm141.117,-70.558l70.559,47.025l-70.559,23.533l-141.117,0l-0,-70.558l141.117,0Zm70.559,47.025l-0,23.533l-70.559,0l70.559,-23.533Zm-117.58,-2234.21l47.021,-23.534l70.559,23.534l-0,2234.21l-117.58,0l-0,-2234.21Zm47.021,-23.534l70.559,-0l-0,23.534l-70.559,-23.534Z" style="fill:#fefefe;fill-rule:nonzero;"/><rect x="18748" y="7973.81" width="141.117" height="2234.21" style="fill:#fefefe;"/><path d="M18748,8020.84l-70.559,-47.024l70.559,-23.534l141.117,-0l0,70.558l-141.117,0Zm-70.559,-47.024l0,-23.534l70.559,-0l-70.559,23.534Zm117.633,2234.21l-47.023,23.533l-70.559,-23.533l0,-2234.21l117.582,-0l0,2234.21Zm-47.074,23.533l-70.559,0l0,-23.533l70.559,23.533Zm141.117,-70.558l47.028,47.025l-47.028,23.533l-141.117,0l0,-70.558l141.117,0Zm47.028,47.025l0,23.533l-47.028,0l47.028,-23.533Zm-94.049,-2234.21l47.021,-23.534l47.028,23.534l0,2234.21l-94.096,0l0,-2234.21l0.047,-0Zm47.021,-23.534l47.028,-0l0,23.534l-47.028,-23.534Z" style="fill:#fefefe;fill-rule:nonzero;"/><rect x="18136.6" y="7973.81" width="164.604" height="2234.21" style="fill:#fefefe;"/><path d="M18136.6,8020.84l-47.026,-47.024l47.026,-23.534l164.604,-0l-0,70.558l-164.604,0Zm-47.026,-47.024l0,-23.534l47.026,-0l-47.026,23.534Zm117.585,2234.21l-70.559,23.533l-47.026,-23.533l0,-2234.21l117.585,-0l-0,2234.21Zm-70.559,23.533l-47.026,0l0,-23.533l47.026,23.533Zm164.604,-70.558l47.025,47.025l-47.025,23.533l-164.604,0l-0,-70.558l164.604,0Zm47.072,47.025l-0,23.533l-47.022,0l47.022,-23.533Zm-117.629,-2234.21l70.557,-23.534l47.025,23.534l0,2234.21l-117.582,0l-0,-2234.21Zm70.557,-23.534l47.025,-0l0,23.534l-47.025,-23.534Z" style="fill:#fefefe;fill-rule:nonzero;"/><rect x="17548.6" y="7973.81" width="141.119" height="2234.21" style="fill:#fefefe;"/><path d="M17548.6,8020.84l-47.021,-47.024l47.021,-23.534l141.12,-0l-0,70.558l-141.12,0Zm-47.021,-47.024l-0,-23.534l47.021,-0l-47.021,23.534Zm94.047,2234.21l-47.026,23.533l-47.021,-23.533l-0,-2234.21l94.091,-0l0,2234.21l-0.044,0Zm-47.026,23.533l-47.021,0l-0,-23.533l47.021,23.533Zm141.12,-70.558l70.558,47.025l-70.558,23.533l-141.12,0l0,-70.558l141.12,0Zm70.558,47.025l0,23.533l-70.558,0l70.558,-23.533Zm-117.582,-2234.21l47.024,-23.534l70.558,23.534l0,2234.21l-117.582,0l-0,-2234.21Zm47.024,-23.534l70.558,-0l0,23.534l-70.558,-23.534Z" style="fill:#fefefe;fill-rule:nonzero;"/><rect x="16937.1" y="7973.81" width="164.655" height="2234.21" style="fill:#fefefe;"/><path d="M16937.1,8020.84l-47.023,-47.024l47.023,-23.534l164.606,-0l-0,70.558l-164.606,0Zm-47.023,-47.024l-0,-23.534l47.023,-0l-47.023,23.534Zm117.586,2234.21l-70.563,23.533l-47.023,-23.533l-0,-2234.21l117.586,-0l-0,2234.21Zm-70.563,23.533l-47.023,0l-0,-23.533l47.023,23.533Zm164.655,-70.558l47.025,47.025l-47.025,23.533l-164.604,0l-0,-70.558l164.604,0Zm47.025,47.025l0,23.533l-47.025,0l47.025,-23.533Zm-117.588,-2234.21l70.563,-23.534l47.025,23.534l0,2234.21l-117.588,0l-0,-2234.21Zm70.563,-23.534l47.025,-0l0,23.534l-47.025,-23.534Z" style="fill:#fefefe;fill-rule:nonzero;"/><rect x="16349.2" y="7973.81" width="141.071" height="2234.21" style="fill:#fefefe;"/><path d="M16349.2,8020.84l-47.024,-47.024l47.024,-23.534l141.117,-0l0,70.558l-141.117,0Zm-47.07,-47.024l-0,-23.534l47.024,-0l-47.024,23.534Zm94.096,2234.21l-47.026,23.533l-47.024,-23.533l-0,-2234.21l94.095,-0l0,2234.21l-0.045,0Zm-47.026,23.533l-47.024,0l-0,-23.533l47.024,23.533Zm141.071,-70.558l70.558,47.025l-70.558,23.533l-141.117,0l0,-70.558l141.117,0Zm70.558,47.025l0,23.533l-70.558,0l70.558,-23.533Zm-117.583,-2234.21l47.025,-23.534l70.558,23.534l0,2234.21l-117.583,0l0,-2234.21Zm47.025,-23.534l70.558,-0l0,23.534l-70.558,-23.534Z" style="fill:#fefefe;fill-rule:nonzero;"/><rect x="15761.2" y="7973.81" width="141.12" height="2234.21" style="fill:#fefefe;"/><path d="M15761.2,8020.84l-70.558,-47.024l70.558,-23.534l141.121,-0l-0,70.558l-141.121,0Zm-70.558,-47.024l-0,-23.534l70.558,-0l-70.558,23.534Zm117.583,2234.21l-47.025,23.533l-70.558,-23.533l-0,-2234.21l117.583,-0l-0,2234.21Zm-47.025,23.533l-70.558,0l-0,-23.533l70.558,23.533Zm141.121,-70.558l47.024,47.025l-47.024,23.533l-141.121,0l0,-70.558l141.121,0Zm47.024,47.025l0,23.533l-47.024,0l47.024,-23.533Zm-94.096,-2234.21l47.022,-23.534l47.024,23.534l0,2234.21l-94.095,0l-0,-2234.21l0.049,-0Zm47.072,-23.534l47.024,-0l0,23.534l-47.024,-23.534Z" style="fill:#fefefe;fill-rule:nonzero;"/><rect x="15149.7" y="7973.81" width="141.12" height="2234.21" style="fill:#fefefe;"/><path d="M15149.7,8020.84l-47.021,-47.024l47.021,-23.534l141.121,-0l-0,70.558l-141.121,0Zm-47.021,-47.024l-0,-23.534l47.021,-0l-47.021,23.534Zm94.046,2234.21l-47.025,23.533l-47.021,-23.533l-0,-2234.21l94.096,-0l-0,2234.21l-0.05,0Zm-47.025,23.533l-47.021,0l-0,-23.533l47.021,23.533Zm141.121,-70.558l70.558,47.025l-70.558,23.533l-141.121,0l0,-70.558l141.121,0Zm70.558,47.025l0,23.533l-70.558,0l70.558,-23.533Zm-117.583,-2234.21l47.025,-23.534l70.558,23.534l0,2234.21l-117.583,0l0,-2234.21Zm47.025,-23.534l70.558,-0l0,23.534l-70.558,-23.534Z" style="fill:#fefefe;fill-rule:nonzero;"/><rect x="14561.8" y="7973.81" width="141.116" height="2234.21" style="fill:#fefefe;"/><path d="M14561.8,8020.84l-70.559,-47.024l70.559,-23.534l141.116,-0l-0,70.558l-141.116,0Zm-70.559,-47.024l-0,-23.534l70.559,-0l-70.559,23.534Zm117.63,2234.21l-47.026,23.533l-70.558,-23.533l-0,-2234.21l117.584,-0l-0,2234.21Zm-47.071,23.533l-70.559,0l-0,-23.533l70.559,23.533Zm141.116,-70.558l47.025,47.025l-47.025,23.533l-141.116,0l-0,-70.558l141.116,0Zm47.025,47.025l0,23.533l-47.025,0l47.025,-23.533Zm-94.046,-2234.21l47.021,-23.534l47.025,23.534l0,2234.21l-94.095,0l-0,-2234.21l0.049,-0Zm47.021,-23.534l47.025,-0l0,23.534l-47.025,-23.534Z" style="fill:#fefefe;fill-rule:nonzero;"/><rect x="13950.3" y="7973.81" width="164.609" height="2234.21" style="fill:#fefefe;"/><path d="M13950.3,8020.84l-47.02,-47.024l47.02,-23.534l164.609,-0l0,70.558l-164.609,0Zm-47.02,-47.024l-0,-23.534l47.02,-0l-47.02,23.534Zm117.579,2234.21l-70.559,23.533l-47.02,-23.533l-0,-2234.21l117.579,-0l0,2234.21Zm-70.559,23.533l-47.02,0l-0,-23.533l47.02,23.533Zm164.609,-70.558l47.025,47.025l-47.025,23.533l-164.609,0l0,-70.558l164.609,0Zm47.07,47.025l0,23.533l-47.024,0l47.024,-23.533Zm-117.629,-2234.21l70.559,-23.534l47.025,23.534l-0,2234.21l-117.584,0l0,-2234.21Zm70.559,-23.534l47.025,-0l-0,23.534l-47.025,-23.534Z" style="fill:#fefefe;fill-rule:nonzero;"/><rect x="13362.4" y="7973.81" width="141.116" height="2234.21" style="fill:#fefefe;"/><path d="M13362.4,8020.84l-47.026,-47.024l47.026,-23.534l141.116,-0l-0,70.558l-141.116,0Zm-47.026,-47.024l0,-23.534l47.026,-0l-47.026,23.534Zm94.05,2234.21l-47.024,23.533l-47.026,-23.533l0,-2234.21l94.096,-0l-0,2234.21l-0.046,0Zm-47.024,23.533l-47.026,0l0,-23.533l47.026,23.533Zm141.116,-70.558l70.559,47.025l-70.559,23.533l-141.116,0l-0,-70.558l141.116,0Zm70.559,47.025l-0,23.533l-70.559,0l70.559,-23.533Zm-117.629,-2234.21l47.024,-23.534l70.559,23.534l-0,2234.21l-117.583,0l-0,-2234.21Zm47.07,-23.534l70.559,-0l-0,23.534l-70.559,-23.534Z" style="fill:#fefefe;fill-rule:nonzero;"/><rect x="19406.5" y="10890.1" width="1222.94" height="305.725" style="fill:#9d9e9e;"/><path d="M19406.5,10960.6l-47.022,-70.558l47.022,-47.025l1222.94,0l-0,117.583l-1222.94,0Zm-47.022,-70.558l0,-47.025l47.022,0l-47.022,47.025Zm117.58,305.725l-70.558,47.025l-47.022,-47.025l0,-305.725l117.58,0l0,305.725Zm-70.558,47.025l-47.022,0l0,-47.025l47.022,47.025Zm1222.94,-117.583l70.558,70.558l-70.558,47.025l-1222.94,0l-0,-117.583l1222.94,-0Zm70.558,70.558l0,47.025l-70.558,0l70.558,-47.025Zm-141.119,-305.725l70.561,-47.025l70.558,47.025l0,305.725l-141.119,0l0,-305.725Zm70.561,-47.025l70.558,0l0,47.025l-70.558,-47.025Z" style="fill:#fefefe;fill-rule:nonzero;"/><rect x="14044.4" y="10890.1" width="1199.45" height="305.725" style="fill:#9d9e9e;"/><path d="M14044.4,10960.6l-70.562,-70.558l70.562,-47.025l1199.41,0l0,117.583l-1199.41,0Zm-70.562,-70.558l-0,-47.025l70.562,0l-70.562,47.025Zm117.634,305.725l-47.026,47.025l-70.557,-47.025l-0,-305.725l117.583,0l-0,305.725Zm-47.072,47.025l-70.562,0l-0,-47.025l70.562,47.025Zm1199.45,-117.583l70.558,70.558l-70.558,47.025l-1199.41,0l0,-117.583l1199.41,-0Zm70.558,70.558l-0,47.025l-70.558,0l70.558,-47.025Zm-141.116,-305.725l70.558,-47.025l70.558,47.025l-0,305.725l-141.116,0l-0,-305.725Zm70.558,-47.025l70.558,0l-0,47.025l-70.558,-47.025Z" style="fill:#fefefe;fill-rule:nonzero;"/><rect x="13127.2" y="10537.3" width="8348.93" height="70.558" style="fill:#fefefe;"/><path d="M13127.2,10560.8l-70.557,-23.538l70.557,-47.021l8348.98,0l-0,70.559l-8348.98,0Zm-70.557,-23.538l-0,-47.021l70.557,0l-70.557,47.021Zm117.583,70.558l-47.026,47.026l-70.557,-47.026l-0,-70.558l117.583,0l-0,70.558Zm-47.026,47.076l-70.557,-0l-0,-47.025l70.557,47.025Zm8348.93,-70.563l47.026,23.538l-47.026,47.025l-8348.98,-0l0,-70.563l8348.98,0Zm47.026,23.487l-0,47.026l-47.026,-0l47.026,-47.026Zm-94.047,-70.558l47.021,-47.021l47.026,47.021l-0,70.558l-94.096,0l-0,-70.558l0.049,0Zm47.021,-47.021l47.026,0l-0,47.021l-47.026,-47.021Z" style="fill:#fefefe;fill-rule:nonzero;"/><path d="M17431,3975.72c-164.608,329.258 -352.795,258.7 -399.825,117.579c-0,-94.091 164.61,-164.604 235.166,-329.258c0,-47.025 23.54,-47.025 0,-141.117c0,-117.583 0,-188.142 -70.556,-164.608c-141.118,0 -94.096,117.583 -94.096,235.166c-23.535,70.559 -47.022,47.025 -188.139,141.121c-305.724,211.675 -211.679,611.492 211.676,658.517c211.678,47.025 399.821,-141.117 399.821,-352.796c0,-94.096 94.092,-305.721 -94.096,-164.604l0.049,0Z" style="fill:#2359a4;"/><path d="M17172.3,4140.38l0,587.913" style="fill:none;stroke:#9d9e9e;stroke-width:201.22px;"/><rect x="23334.1" y="10349.1" width="9665.98" height="2798.68" style="fill:#2359a4;"/><rect x="23334.1" y="10349.1" width="9665.98" height="2798.68" style="fill:none;stroke:#fefefe;stroke-width:241.44px;stroke-linecap:butt;stroke-linejoin:miter;"/><rect x="24039.6" y="11054.7" width="1499.52" height="1604.45" style="fill:#fefefe;"/><rect x="25944.6" y="11054.7" width="1499.52" height="1604.45" style="fill:#fefefe;"/><rect x="27873.1" y="11054.7" width="1499.52" height="1604.45" style="fill:#fefefe;"/><path d="M4472.49,10678.4c823.126,729.079 2234.21,1857.93 2046.07,2916.27c-141.121,893.683 -376.283,1293.5 -540.937,1646.25c-376.283,870.196 682.004,1317.04 1152.38,1222.95c446.842,-117.584 23894.5,-0 23894.5,-0l2234.21,-611.5l0,-1411.08c634.983,-1505.18 1810.9,-376.283 1669.79,-3410.13l-4186.24,-0l-1434.62,1364.06l-17662.2,0l-1364.06,-1716.81l-5809,0l0.049,0Z" style="fill:#9d9e9e;"/><path d="M4586.08,10964.9c-68.746,-60.129 -134.975,-118.058 -206.566,-181.471l92.925,-105.021l-0,-140.887l5876.63,-0l1364.06,1716.81l17538.8,0l1434.62,-1364.06l4375.99,-0l6.271,134.783c92.22,1982.58 -368.913,2269.77 -894.674,2597.21c-268.463,167.192 -556.258,346.459 -774.562,846.55l-0,1490.38c-785.541,215.008 -1571.07,430.041 -2356.62,645l-18.972,-0.092c-67.22,-0.333 -23428.6,-117.45 -23858.2,-4.404l-8.25,2.204c-191.674,38.337 -463.362,0.767 -713.291,-107.304c-153.788,-66.5 -301.246,-159.867 -419.142,-278.867c-123.683,-124.833 -215.712,-277.137 -251.458,-455.833c-34.121,-170.571 -16.329,-362.758 75.271,-574.588l1.65,-3.854c27.454,-58.816 46.141,-97.45 65.495,-137.458c153.338,-316.979 343.888,-710.884 463.888,-1470.83l0,-2.749c159.454,-896.959 -987.567,-1900.26 -1793.85,-2605.52Zm259.729,-145.709c849.942,744.426 1992.95,1778.24 1811.38,2799.64l-0.429,-0.075c-126.862,801.504 -326.762,1214.76 -487.662,1547.38c-25.717,53.154 -50.529,104.45 -64.375,134.108c-65.171,152.425 -78.392,287.384 -54.934,404.65c24.192,120.942 88.113,225.667 174.438,312.8c92.109,92.971 208.725,166.53 331.121,219.455c198,85.616 406.112,116.808 547.154,88.595l0.192,0.98c609.97,-118.284 23170.5,-6.921 23903.4,-3.276l2111.8,-577.991l-0,-1331.29l11.553,-27.387c254.718,-603.792 586.768,-810.592 896.137,-1003.26c439.945,-273.996 827.095,-515.425 768.07,-2211.58l-3995.64,0l-1434.62,1364.06l-17785.5,-0l-1364.06,-1716.81l-5368,0Z" style="fill:#fefefe;fill-rule:nonzero;"/><path d="M6518.56,13524.1l0,47.025c-164.608,917.221 -399.821,1317.04 -540.937,1669.79c-376.283,870.196 682.004,1293.5 1152.38,1199.41c446.842,-94.096 23871,0 23871,0l2234.21,-611.496l-0,-1387.55c235.168,-517.404 517.405,-729.079 776.105,-917.22l-27492.8,-0l0.05,0.045Z" style="fill:#2359a4;"/><path d="M6627.32,13644.8c-133.821,718.654 -309.28,1116.57 -446.221,1427.08c-34.383,77.966 -66.342,150.429 -91.717,213.854l-1.412,2.833c-68.109,157.5 -82.192,296.204 -58.192,416.187c24.088,120.417 87.213,224.18 172.721,310.4c90.454,91.213 205.216,163.396 326.42,215.809c206.871,89.45 428.017,120.925 577.513,91.021l0.067,0.354c471.196,-95.108 23234.6,-4.875 23878.6,-2.304l2129.34,-582.796l0,-1321.59l10.846,-23.858c123.788,-272.35 260.836,-465.171 401.392,-615.096c45.3,-48.321 90.59,-91.833 135.663,-131.892l-27035.1,0Zm-666.913,1329.93c134.217,-304.325 306.675,-695.434 435.638,-1401.95l-173.663,-169.429l28159.9,-0l-300.216,218.333c-124.918,90.854 -255.414,187.263 -379.897,320.05c-120.017,128.017 -237.809,292.95 -346.218,525.513l0,1453.21c-779.691,213.404 -1559.38,426.846 -2339.08,640.196l-16.32,-0.063c-67.168,-0.267 -23410.7,-94.012 -23846,-2.358l-0.942,0.471c-192.4,38.487 -468.462,1.679 -719.921,-107.059c-148.103,-64.041 -289.241,-153.162 -401.874,-266.733c-117.58,-118.558 -204.742,-263.063 -238.738,-433.008c-32.825,-164.084 -15.475,-349.78 72.983,-555.7l-0.175,-0.071c30.246,-75.6 61.221,-145.833 94.546,-221.404Z" style="fill:#fefefe;fill-rule:nonzero;"/><path d="M32764.9,5269.23l-9712.99,0l611.448,1411.08l9101.55,0l0,-1411.08Z" style="fill:#2359a4;"/><path d="M32644.1,5389.94l-9408.99,0l506.83,1169.64l8902.16,-0l-0,-1169.64Zm-9775.57,-241.44l10017,-0l0,1652.52l-9300.94,0l-716.071,-1652.52Z" style="fill:#fefefe;fill-rule:nonzero;"/><path d="M29331.2,1529.83l-1951.98,-0l-0,3668.83l2775.15,0l-823.171,-3668.83Z" style="fill:#2359a4;"/><path d="M29331.2,1529.83l-1951.98,-0l-0,3668.83l2775.15,0l-823.171,-3668.83Z" style="fill:none;stroke:#fefefe;stroke-width:201.22px;stroke-linecap:butt;stroke-linejoin:miter;"/><path d="M29307.7,2517.61l-1669.78,-0l0,1034.8l1857.93,-0l-188.145,-1034.8Z" style="fill:#fefefe;"/><path d="M29307.7,2517.61l-1669.78,-0l0,1034.8l1857.93,-0l-188.145,-1034.8Z" style="fill:none;stroke:#2359a4;stroke-width:201.22px;stroke-linecap:butt;stroke-linejoin:miter;"/><path d="M26744.2,1.163l305.772,5103.45l-564.471,0l258.699,-5103.45Z" style="fill:#2359a4;"/><path d="M24886.3,5081.08l-7643.39,-4562.52l-117.584,141.12l6984.88,4421.4l776.101,0Z" style="fill:#2359a4;"/><path d="M17195.8,612.608l-0,3127.95" style="fill:none;stroke:#2359a4;stroke-width:160.99px;"/><path d="M3320.1,6680.31c-0,446.842 -141.117,823.125 -423.304,1081.83c-282.238,282.237 -634.983,399.82 -1058.34,399.82l-564.429,-0l0,-870.196l376.284,0c211.679,0 376.283,-47.024 517.404,-164.608c117.583,-117.579 164.604,-282.233 164.604,-493.867c-0,-211.675 -70.559,-399.816 -188.142,-517.4c-141.117,-117.583 -305.721,-188.142 -493.866,-188.142c-188.142,0 -329.259,70.559 -470.376,211.68c-117.583,141.117 -188.141,352.792 -188.141,611.496l-0,3033.85l-987.779,-0l-0,-3151.43c-0,-470.379 141.116,-846.662 399.816,-1152.39c282.238,-329.258 705.546,-470.375 1199.41,-470.375c564.425,0 987.783,164.604 1293.5,493.866c282.237,305.721 423.308,705.542 423.308,1175.92l0.046,-0.05Zm3692.42,2093.14l-446.938,0l0,1011.27l-964.241,-0l-0,-1011.27l-1340.53,0c-211.675,0 -376.283,-47.025 -493.862,-188.142c-117.584,-117.583 -188.146,-282.237 -188.146,-446.842c-0,-117.583 23.537,-258.699 94.096,-399.821c23.537,-94.09 94.096,-211.675 164.608,-329.258l1387.55,-2328.3l987.779,0l-1669.79,2798.68l1058.34,-0l0,-1317.04l870.196,-1481.64l94.096,0l-0,2798.68l446.842,-0l-0,893.683Z" style="fill:#2359a4;fill-rule:nonzero;"/><path d="M10328.5,9784.72l-493.867,-0c-540.938,-0 -1034.8,-141.117 -1434.62,-423.304c-282.237,-211.68 -517.399,-446.846 -682.008,-752.567c-211.675,-352.796 -329.258,-752.566 -329.258,-1175.92c0,-211.679 23.533,-399.821 94.092,-611.5c47.025,-211.675 117.583,-399.817 235.166,-564.421c164.609,-305.725 399.821,-564.425 682.008,-752.567c399.821,-282.237 893.684,-423.308 1434.62,-423.308l493.867,-0l-0,940.708l-493.867,0c-399.817,0 -752.567,141.117 -1034.8,399.817c-282.236,258.704 -399.821,611.5 -399.821,1011.27c0,399.816 117.585,729.075 399.821,1011.27c282.234,258.701 634.984,399.817 1034.8,399.817l493.867,0l-0,940.709Z" style="fill:#ffa230;fill-rule:nonzero;"/></g></svg>