<?xml version="1.0" encoding="UTF-8" standalone="no"?><!DOCTYPE svg PUBLIC "-//W3C//DTD SVG 1.1//EN" "http://www.w3.org/Graphics/SVG/1.1/DTD/svg11.dtd"><svg width="100%" height="100%" viewBox="0 0 35250 9717" version="1.1" xmlns="http://www.w3.org/2000/svg" xmlns:xlink="http://www.w3.org/1999/xlink" xml:space="preserve" xmlns:serif="http://www.serif.com/" style="fill-rule:evenodd;clip-rule:evenodd;stroke-linecap:round;stroke-linejoin:round;stroke-miterlimit:2;"><g><path d="M21272.4,9550.18l-290.806,0c-324.027,0 -606.549,-83.1 -839.166,-240.958c-166.17,-116.321 -299.117,-265.867 -407.129,-440.35c-124.634,-207.708 -182.796,-440.354 -182.796,-689.621c-0,-116.325 16.626,-232.646 41.538,-357.279c33.222,-116.325 83.095,-232.646 141.258,-332.342c108.012,-174.483 240.959,-324.033 407.129,-432.066c232.645,-166.175 515.139,-249.271 839.166,-249.271l290.806,-0l0,548.387l-290.806,0c-240.957,0 -448.661,74.788 -606.549,232.646c-166.17,157.859 -240.959,357.279 -240.959,589.925c0,232.642 74.789,432.067 240.959,589.925c157.859,157.859 365.592,232.642 606.549,232.642l290.806,-0l0,548.391l0,-0.029Zm2176.87,-1071.81c-0,299.121 -41.532,515.137 -124.634,664.712c-66.473,124.634 -182.794,232.646 -340.653,315.742c-149.547,91.387 -315.745,141.263 -498.513,141.263c-174.483,-0 -340.654,-49.85 -490.228,-132.946c-199.423,-108.013 -332.343,-257.584 -398.814,-440.355c-41.537,-124.633 -66.478,-290.804 -66.478,-498.512l0,-1719.9l581.612,0l0,1769.75c0,149.546 41.537,265.867 116.325,340.654c66.472,74.788 157.858,116.321 257.583,116.321c124.634,0 224.333,-49.846 282.491,-132.946c66.475,-83.1 99.697,-191.108 99.697,-324.029l-0,-1769.75l581.612,0l-0,1670.05l-0,-0.058Zm2010.71,324.029c-0,149.546 -33.224,282.496 -99.699,390.504c-91.384,157.858 -216.022,257.584 -382.192,307.429c-99.695,33.225 -249.272,49.85 -440.351,49.85l-789.317,0l0,-548.387l747.781,-0c108.012,-0 191.111,-8.313 232.646,-24.938c91.383,-24.937 132.948,-83.1 132.948,-166.17c0,-58.163 -24.937,-116.325 -66.473,-166.175c-24.939,-24.938 -124.638,-99.696 -299.121,-216.017c-182.796,-116.321 -315.743,-207.708 -398.814,-274.183c-116.325,-91.384 -199.424,-182.796 -249.27,-265.867c-66.475,-108.009 -99.697,-232.646 -99.697,-373.904c0,-149.546 41.535,-282.492 116.321,-398.817c83.102,-132.946 199.423,-224.333 340.656,-265.867c99.695,-24.937 240.952,-41.533 432.066,-41.533l706.246,-0l-0,548.388l-747.783,-0c-83.097,-0 -132.947,8.312 -166.172,16.625c-58.158,24.937 -83.095,66.474 -83.095,132.945c-0,49.85 16.619,99.7 49.845,141.263c33.225,41.533 66.475,74.787 108.01,108.008c33.223,24.938 108.012,74.788 232.646,149.546c191.107,116.321 332.34,216.021 423.752,282.492c91.384,74.787 157.86,149.55 199.423,216.021c33.223,58.162 58.162,116.32 74.786,191.108c16.626,66.475 24.937,141.262 24.937,207.708l-0.079,-0.029Zm1844.56,-1445.72l-589.925,0l0,2193.5l-581.612,0l-0,-2193.5l-598.238,0l-0,-548.387l1769.75,-0l-0,548.387l0.03,0Zm2908.03,822.571c0,390.504 -141.257,731.154 -415.437,1005.36c-274.183,274.183 -614.836,415.445 -1005.37,415.445c-398.818,0 -731.159,-141.262 -1005.37,-415.445c-282.494,-274.179 -415.442,-614.834 -415.442,-1005.36c-0,-398.817 132.948,-731.158 415.442,-1005.37c274.178,-274.179 606.549,-415.441 1005.37,-415.441c390.498,-0 731.154,141.262 1005.37,415.441c274.18,274.18 415.437,606.55 415.437,1005.37Zm-581.608,0c0,-232.646 -83.099,-440.354 -240.958,-606.55c-166.171,-166.171 -365.595,-249.271 -598.236,-249.271c-240.959,0 -432.068,83.1 -598.239,249.271c-166.17,166.171 -240.958,365.592 -240.958,606.55c-0,232.642 74.788,432.067 240.958,598.238c166.171,166.171 357.28,257.583 598.239,257.583c232.641,-0 432.065,-83.1 598.236,-249.271c157.859,-166.171 240.958,-365.596 240.958,-606.55Zm3797.13,1370.93l-606.576,0l-207.713,-2127.03l-473.598,1960.85c-24.939,74.788 -41.534,124.638 -66.475,149.546c-33.222,33.225 -99.697,58.163 -199.42,58.163c-74.789,-0 -132.947,-16.625 -157.86,-33.225c-41.532,-33.221 -74.784,-91.384 -99.697,-182.796l-473.602,-1952.54l-207.705,2127.03l-614.837,0l274.182,-2210.12c16.626,-174.483 58.164,-299.116 108.01,-382.191c83.099,-132.946 207.702,-199.421 382.192,-199.421c166.17,-0 290.804,49.85 373.903,157.858c66.476,74.788 108.008,157.859 124.634,265.867l290.808,1287.86l290.804,-1262.92c24.941,-124.637 66.475,-224.333 124.638,-282.495c91.382,-108.009 216.016,-166.171 373.903,-166.171c166.171,-0 290.808,58.162 373.904,174.483c58.164,91.384 99.697,224.333 124.638,407.129l265.867,2210.12Zm1819.57,-747.783c-0,149.546 -33.224,282.496 -99.699,390.504c-91.382,157.858 -216.02,257.584 -382.19,307.429c-99.703,33.225 -249.272,49.85 -440.353,49.85l-789.321,0l0,-548.387l747.785,-0c108.012,-0 191.109,-8.313 240.959,-24.938c83.097,-24.937 124.633,-83.1 124.633,-166.17c0,-58.163 -16.622,-116.325 -66.471,-166.175c-24.939,-24.938 -124.638,-99.696 -299.121,-216.017c-182.796,-116.321 -315.743,-207.708 -398.814,-274.183c-116.325,-91.384 -199.424,-182.796 -249.274,-265.867c-66.471,-108.009 -99.697,-232.646 -99.697,-373.904c0,-149.546 41.539,-282.492 116.325,-398.817c83.098,-132.946 199.423,-224.333 340.656,-265.867c99.695,-24.937 240.959,-41.533 432.068,-41.533l706.246,-0l-0,548.388l-747.787,-0c-83.097,-0 -132.947,8.312 -166.17,16.625c-58.158,24.937 -83.097,66.474 -83.097,132.945c-0,49.85 16.622,99.7 49.849,141.263c33.224,41.533 66.471,74.787 108.008,108.008c33.223,24.938 108.012,74.788 232.646,149.546c191.109,116.321 332.34,216.021 423.754,282.492c91.382,74.787 157.858,149.55 199.423,216.021c33.223,58.162 58.158,116.32 74.784,191.108c16.626,66.475 24.939,141.262 24.939,207.708l-0.081,-0.029Z" style="fill:#ffa230;fill-rule:nonzero;"/><rect x="12606.4" y="4556.66" width="3896.77" height="1528.79" style="fill:#2359a4;"/><rect x="12573.1" y="3933.51" width="3963.27" height="531.738" style="fill:#9d9e9e;"/><path d="M16477.5,3992.35l-3845.59,0l0,414.054l3845.59,0l0,-414.054Zm-3963.28,-117.683l4080.96,-0l0,649.421l-4080.96,-0l0,-649.421Z" style="fill:#fefefe;fill-rule:nonzero;"/><rect x="10055.6" y="5645.1" width="664.687" height="772.721" style="fill:#2359a4;"/><path d="M10055.6,5603.56l664.712,0l0,83.1l-664.712,0l-58.159,-41.537l58.159,-41.533l-0,-0.03Zm-58.159,41.538l0,-41.538l58.159,0l-58.159,41.538Zm0,772.721l0,-772.721l116.321,-0l0,772.721l-58.162,41.533l-58.159,-41.533Zm58.159,41.533l-58.159,0l0,-41.533l58.159,41.533Zm664.687,0l-664.713,0l0,-83.1l664.713,0l58.158,41.538l-58.158,41.537l-0,0.025Zm58.158,-41.533l0,41.533l-58.158,0l58.158,-41.533Zm0,-772.721l0,772.721l-116.321,-0l0,-772.721l58.163,-41.538l58.158,41.538Zm-58.158,-41.538l58.158,0l0,41.538l-58.158,-41.538Z" style="fill:#fefefe;fill-rule:nonzero;"/><path d="M10230.1,4481.88l66.47,-124.637c24.938,24.941 33.226,66.475 16.625,99.7c-16.625,33.22 -58.158,41.533 -83.095,24.937Zm-2085.49,-1645.14l0,-116.321l66.475,-0l2085.49,1636.83l-66.47,124.637l-2085.49,-1645.14Zm66.475,-116.292l-66.475,116.32c-24.937,-16.624 -33.225,-66.47 -16.625,-99.695c16.625,-33.225 58.163,-41.538 83.1,-16.625Zm-2027.33,1761.43l-66.475,-124.637l2027.33,-1636.83l66.475,116.321l-2027.33,1645.14Zm-66.475,-124.637l66.475,124.637c-24.942,16.625 -58.162,8.313 -83.1,-24.937c-16.629,-33.225 -8.312,-74.788 16.625,-99.7Z" style="fill:#9d9e9e;fill-rule:nonzero;"/><path d="M10736.9,4481.88l83.096,-124.637c33.225,24.941 41.538,66.475 16.625,99.7c-16.625,33.22 -66.471,41.533 -99.696,24.937l-0.025,0Zm-2600.63,-1645.14l-8.313,-116.321l83.1,-0l2608.94,1636.83l-83.096,124.637l-2600.63,-1645.14Zm74.787,-116.292l-74.787,116.32c-41.538,-16.624 -49.85,-58.158 -24.938,-99.695c16.625,-33.225 66.471,-41.538 99.696,-16.625l0.029,-0Zm-2534.16,1761.43l-83.096,-124.637l2534.15,-1636.83l83.1,116.321l-2534.16,1645.14Zm-83.096,-124.637l83.096,124.637c-33.221,16.625 -83.096,8.313 -99.696,-24.937c-24.938,-33.225 -16.625,-74.788 16.625,-99.7l-0.025,-0Z" style="fill:#9d9e9e;fill-rule:nonzero;"/><rect x="5585.49" y="4415.4" width="5259.42" height="2118.74" style="fill:#2359a4;"/><rect x="10446.1" y="4672.98" width="91.412" height="1296.15" style="fill:#fefefe;"/><path d="M10446.1,4648.05l91.382,-0l0,41.533l-91.382,0l-33.222,-16.625l33.222,-24.937l-0,0.029Zm-33.222,24.937l0,-24.937l33.222,-0l-33.222,24.937Zm0,1296.15l0,-1296.17l66.472,0l-0,1296.17l-33.221,16.625l-33.225,-16.625l-0.026,0Zm33.222,16.625l-33.222,0l0,-16.625l33.222,16.625Zm91.412,0l-91.383,0l0,-33.225l91.383,0l24.938,16.625l-24.938,16.625l0,-0.025Zm24.908,-16.625l0,16.625l-24.938,0l24.938,-16.625Zm0,-1296.15l0,1296.17l-58.158,0l0,-1296.17l33.22,-24.937l24.938,24.937Zm-24.908,-24.937l24.938,-0l-0,24.937l-24.938,-24.937Z" style="fill:#fefefe;fill-rule:nonzero;"/><rect x="10097.1" y="4672.98" width="91.412" height="1296.15" style="fill:#fefefe;"/><path d="M10097.1,4648.05l91.383,-0l0,41.533l-91.383,0l-33.225,-16.625l33.225,-24.937l0,0.029Zm-33.225,24.937l-0,-24.937l33.225,-0l-33.225,24.937Zm-0,1296.15l-0,-1296.17l66.475,0l0,1296.17l-33.221,16.625l-33.225,-16.625l-0.029,0Zm33.225,16.625l-33.225,0l-0,-16.625l33.225,16.625Zm91.413,0l-91.384,0l-0,-33.225l91.384,0l24.936,16.625l-24.936,16.625l-0,-0.025Zm24.912,-16.625l0,16.625l-24.942,0l24.942,-16.625Zm0,-1296.15l0,1296.17l-58.162,0l-0,-1296.17l33.22,-24.937l24.942,24.937Zm-24.912,-24.937l24.936,-0l0,24.937l-24.936,-24.937Z" style="fill:#fefefe;fill-rule:nonzero;"/><rect x="9748.15" y="4672.98" width="83.1" height="1296.15" style="fill:#fefefe;"/><path d="M9748.15,4648.05l83.1,-0l0,41.533l-83.1,0l-33.225,-16.625l33.225,-24.937l-0,0.029Zm-33.225,24.937l0,-24.937l33.225,-0l-33.225,24.937Zm0,1296.15l0,-1296.17l66.476,0l-0,1296.17l-33.222,16.625l-33.224,-16.625l-0.03,0Zm33.225,16.625l-33.225,0l0,-16.625l33.225,16.625Zm83.1,0l-83.1,0l-0,-33.225l83.1,0l33.222,16.625l-33.222,16.625l0,-0.025Zm33.222,-16.625l-0,16.625l-33.222,0l33.222,-16.625Zm-0,-1296.15l-0,1296.17l-58.164,0l0,-1296.17l24.942,-24.937l33.222,24.937Zm-33.222,-24.937l33.222,-0l-0,24.937l-33.222,-24.937Z" style="fill:#fefefe;fill-rule:nonzero;"/><rect x="9399.19" y="4672.98" width="83.1" height="1296.15" style="fill:#fefefe;"/><path d="M9399.19,4648.05l83.101,-0l-0,41.533l-83.101,0l-33.224,-16.625l33.224,-24.937l0,0.029Zm-33.224,24.937l-0,-24.937l33.224,-0l-33.224,24.937Zm-0,1296.15l-0,-1296.17l66.474,0l0,1296.17l-33.224,16.625l-33.222,-16.625l-0.028,0Zm33.224,16.625l-33.224,0l-0,-16.625l33.224,16.625Zm83.101,0l-83.101,0l0,-33.225l83.101,0l33.22,16.625l-33.22,16.625l-0,-0.025Zm33.22,-16.625l0,16.625l-33.22,0l33.22,-16.625Zm0,-1296.15l0,1296.17l-66.47,0l-0,-1296.17l33.22,-24.937l33.222,24.937l0.028,0Zm-33.22,-24.937l33.22,-0l0,24.937l-33.22,-24.937Z" style="fill:#fefefe;fill-rule:nonzero;"/><rect x="9050.22" y="4672.98" width="83.096" height="1296.15" style="fill:#fefefe;"/><path d="M9050.22,4648.05l83.096,-0l0,41.533l-83.096,0l-33.225,-16.625l33.225,-24.937l-0,0.029Zm-33.225,24.937l0,-24.937l33.225,-0l-33.225,24.937Zm0,1296.15l0,-1296.17l66.475,0l-0,1296.17l-33.225,16.625l-33.221,-16.625l-0.029,0Zm33.225,16.625l-33.225,0l0,-16.625l33.225,16.625Zm83.096,0l-83.096,0l-0,-33.225l83.096,0l33.225,16.625l-33.225,16.625l0,-0.025Zm33.225,-16.625l-0,16.625l-33.225,0l33.225,-16.625Zm-0,-1296.15l-0,1296.17l-66.475,0l0,-1296.17l33.225,-24.937l33.22,24.937l0.03,0Zm-33.225,-24.937l33.225,-0l-0,24.937l-33.225,-24.937Z" style="fill:#fefefe;fill-rule:nonzero;"/><rect x="8701.25" y="4672.98" width="83.095" height="1296.15" style="fill:#fefefe;"/><path d="M8701.25,4648.05l83.096,-0l-0,41.533l-83.096,0l-33.225,-16.625l33.225,-24.937l0,0.029Zm-33.225,24.937l-0,-24.937l33.225,-0l-33.225,24.937Zm-0,1296.15l-0,-1296.17l58.162,0l0,1296.17l-24.937,16.625l-33.225,-16.625Zm33.225,16.625l-33.225,0l-0,-16.625l33.225,16.625Zm83.096,0l-83.096,0l0,-33.225l83.096,0l33.225,16.625l-33.225,16.625l-0,-0.025Zm33.225,-16.625l0,16.625l-33.225,0l33.225,-16.625Zm0,-1296.15l0,1296.17l-66.475,0l-0,-1296.17l33.225,-24.937l33.221,24.937l0.029,0Zm-33.225,-24.937l33.225,-0l0,24.937l-33.225,-24.937Z" style="fill:#fefefe;fill-rule:nonzero;"/><rect x="8352.28" y="4672.98" width="83.1" height="1296.15" style="fill:#fefefe;"/><path d="M8352.28,4648.05l83.1,-0l0,41.533l-83.1,0l-33.221,-16.625l33.221,-24.937l0,0.029Zm-33.221,24.937l0,-24.937l33.221,-0l-33.221,24.937Zm0,1296.15l0,-1296.17l58.159,0l-0,1296.17l-24.938,16.625l-33.221,-16.625Zm33.221,16.625l-33.221,0l0,-16.625l33.221,16.625Zm83.1,0l-83.1,0l0,-33.225l83.1,0l33.226,16.625l-33.226,16.625l0,-0.025Zm33.226,-16.625l-0,16.625l-33.226,0l33.226,-16.625Zm-0,-1296.15l-0,1296.17l-66.476,0l0,-1296.17l33.225,-24.937l33.221,24.937l0.03,0Zm-33.226,-24.937l33.226,-0l-0,24.937l-33.226,-24.937Z" style="fill:#fefefe;fill-rule:nonzero;"/><rect x="7995.03" y="4672.98" width="91.383" height="1296.15" style="fill:#fefefe;"/><path d="M7995.03,4648.05l91.384,-0l-0,41.533l-91.384,0l-24.937,-16.625l24.937,-24.937l0,0.029Zm-24.937,24.937l-0,-24.937l24.937,-0l-24.937,24.937Zm-0,1296.15l-0,-1296.17l58.158,0l0,1296.17l-33.221,16.625l-24.937,-16.625Zm24.937,16.625l-24.937,0l-0,-16.625l24.937,16.625Zm91.384,0l-91.384,0l0,-33.225l91.384,0l33.225,16.625l-33.225,16.625l-0,-0.025Zm33.225,-16.625l-0,16.625l-33.225,0l33.225,-16.625Zm-0,-1296.15l-0,1296.17l-66.475,0l-0,-1296.17l33.221,-24.937l33.225,24.937l0.029,0Zm-33.225,-24.937l33.225,-0l-0,24.937l-33.225,-24.937Z" style="fill:#fefefe;fill-rule:nonzero;"/><rect x="7646.07" y="4672.98" width="91.383" height="1296.15" style="fill:#fefefe;"/><path d="M7646.07,4648.05l91.383,-0l0,41.533l-91.383,0l-24.942,-16.625l24.942,-24.937l-0,0.029Zm-24.942,24.937l-0,-24.937l24.942,-0l-24.942,24.937Zm-0,1296.15l-0,-1296.17l58.163,0l-0,1296.17l-33.221,16.625l-24.942,-16.625Zm24.942,16.625l-24.942,0l-0,-16.625l24.942,16.625Zm91.383,0l-91.383,0l-0,-33.225l91.383,0l33.221,16.625l-33.221,16.625l0,-0.025Zm33.221,-16.625l0,16.625l-33.221,0l33.221,-16.625Zm0,-1296.15l0,1296.17l-66.471,0l0,-1296.17l33.221,-24.937l33.225,24.937l0.025,0Zm-33.221,-24.937l33.221,-0l0,24.937l-33.221,-24.937Z" style="fill:#fefefe;fill-rule:nonzero;"/><rect x="7297.1" y="4672.98" width="91.383" height="1296.15" style="fill:#fefefe;"/><path d="M7297.1,4648.05l91.383,-0l0,41.533l-91.383,0l-33.225,-16.625l33.225,-24.937l-0,0.029Zm-33.254,24.937l-0,-24.937l33.225,-0l-33.225,24.937Zm-0,1296.15l-0,-1296.17l66.475,0l-0,1296.17l-33.221,16.625l-33.225,-16.625l-0.029,0Zm33.254,16.625l-33.225,0l-0,-16.625l33.225,16.625Zm91.383,0l-91.383,0l-0,-33.225l91.383,0l33.225,16.625l-33.225,16.625l0,-0.025Zm33.225,-16.625l0,16.625l-33.225,0l33.225,-16.625Zm0,-1296.15l0,1296.17l-66.475,0l0,-1296.17l33.221,-24.937l33.225,24.937l0.029,0Zm-33.225,-24.937l33.225,-0l0,24.937l-33.225,-24.937Z" style="fill:#fefefe;fill-rule:nonzero;"/><rect x="6948.13" y="4672.98" width="91.383" height="1296.15" style="fill:#fefefe;"/><path d="M6948.13,4648.05l91.384,-0l-0,41.533l-91.384,0l-33.225,-16.625l33.225,-24.937l0,0.029Zm-33.254,24.937l0,-24.937l33.225,-0l-33.225,24.937Zm0,1296.15l0,-1296.17l66.475,0l0,1296.17l-33.221,16.625l-33.225,-16.625l-0.029,0Zm33.254,16.625l-33.225,0l0,-16.625l33.225,16.625Zm91.384,0l-91.384,0l0,-33.225l91.384,0l33.221,16.625l-33.221,16.625l-0,-0.025Zm33.25,-16.625l-0,16.625l-33.225,0l33.225,-16.625Zm-0,-1296.15l-0,1296.17l-66.475,0l-0,-1296.17l33.225,-24.937l33.221,24.937l0.029,0Zm-33.25,-24.937l33.221,-0l-0,24.937l-33.221,-24.937Z" style="fill:#fefefe;fill-rule:nonzero;"/><rect x="6599.16" y="4672.98" width="91.388" height="1296.15" style="fill:#fefefe;"/><path d="M6599.16,4648.05l91.388,-0l0,41.533l-91.388,0l-33.22,-16.625l33.22,-24.937l0,0.029Zm-33.25,24.937l0,-24.937l33.225,-0l-33.225,24.937Zm0,1296.15l0,-1296.17l66.475,0l0,1296.17l-33.225,16.625l-33.22,-16.625l-0.03,0Zm33.25,16.625l-33.22,0l-0,-16.625l33.22,16.625Zm91.388,0l-91.388,0l0,-33.225l91.388,0l24.938,16.625l-24.938,16.625l0,-0.025Zm24.938,-16.625l-0,16.625l-24.938,0l24.938,-16.625Zm-0,-1296.15l-0,1296.17l-58.163,0l0,-1296.17l33.225,-24.937l24.938,24.937Zm-24.938,-24.937l24.938,-0l-0,24.937l-24.938,-24.937Z" style="fill:#fefefe;fill-rule:nonzero;"/><rect x="6250.2" y="4672.98" width="91.383" height="1296.15" style="fill:#fefefe;"/><path d="M6250.2,4648.05l91.383,-0l0,41.533l-91.383,0l-33.221,-16.625l33.221,-24.937l-0,0.029Zm-33.25,24.937l-0,-24.937l33.225,-0l-33.225,24.937Zm-0,1296.15l-0,-1296.17l66.475,0l-0,1296.17l-33.225,16.625l-33.221,-16.625l-0.029,0Zm33.25,16.625l-33.221,0l-0,-16.625l33.221,16.625Zm91.383,0l-91.383,0l-0,-33.225l91.383,0l24.942,16.625l-24.942,16.625l0,-0.025Zm24.942,-16.625l-0,16.625l-24.942,0l24.942,-16.625Zm-0,-1296.15l-0,1296.17l-58.163,0l0,-1296.17l33.221,-24.937l24.942,24.937Zm-24.942,-24.937l24.942,-0l-0,24.937l-24.942,-24.937Z" style="fill:#fefefe;fill-rule:nonzero;"/><rect x="5901.23" y="4672.98" width="83.071" height="1296.15" style="fill:#fefefe;"/><path d="M5901.23,4648.05l83.1,-0l0,41.533l-83.1,0l-33.225,-16.625l33.225,-24.937l0,0.029Zm-33.25,24.937l-0,-24.937l33.225,-0l-33.225,24.937Zm-0,1296.15l-0,-1296.17l66.475,0l0,1296.17l-33.225,16.625l-33.225,-16.625l-0.025,0Zm33.25,16.625l-33.225,0l0,-16.625l33.225,16.625Zm83.071,0l-83.096,0l-0,-33.225l83.096,0l33.225,16.625l-33.225,16.625l0,-0.025Zm33.25,-16.625l0,16.625l-33.221,0l33.221,-16.625Zm0,-1296.15l0,1296.17l-58.158,0l-0,-1296.17l24.937,-24.937l33.221,24.937Zm-33.25,-24.937l33.225,-0l0,24.937l-33.225,-24.937Z" style="fill:#fefefe;fill-rule:nonzero;"/><rect x="9440.75" y="6376.25" width="714.533" height="174.487" style="fill:#9d9e9e;"/><path d="M9440.75,6343.03l714.562,0l0,74.788l-714.562,-0l-33.221,-41.538l33.221,-33.22l0,-0.03Zm-33.25,33.221l0,-33.221l33.221,0l-33.221,33.221Zm0,174.488l0,-174.488l74.788,0l-0,174.488l-41.538,33.221l-33.221,-33.221l-0.029,-0Zm33.25,33.25l-33.221,-0l-0,-33.225l33.221,33.225Zm714.534,-0l-714.563,-0l-0,-74.788l714.563,0l33.22,41.538l-33.22,33.221l-0,0.029Zm33.25,-33.25l-0,33.221l-33.222,-0l33.222,-33.221Zm-0,-174.488l-0,174.488l-74.788,-0l0,-174.488l41.538,-33.221l33.22,33.221l0.03,0Zm-33.25,-33.221l33.22,0l0,33.221l-33.22,-33.221Z" style="fill:#fefefe;fill-rule:nonzero;"/><rect x="6291.73" y="6376.25" width="714.558" height="174.487" style="fill:#9d9e9e;"/><path d="M6291.73,6343.03l714.559,0l-0,74.788l-714.559,-0l-33.225,-41.538l33.225,-33.22l0,-0.03Zm-33.225,33.221l0,-33.221l33.225,0l-33.225,33.221Zm0,174.488l0,-174.488l74.788,0l-0,174.488l-41.534,33.221l-33.225,-33.221l-0.029,-0Zm33.225,33.25l-33.225,-0l0,-33.225l33.225,33.225Zm714.559,-0l-714.559,-0l0,-74.788l714.559,0l33.225,41.538l-33.225,33.221l-0,0.029Zm33.225,-33.25l-0,33.221l-33.225,-0l33.225,-33.221Zm-0,-174.488l-0,174.488l-74.788,-0l0,-174.488l41.534,-33.221l33.225,33.221l0.029,0Zm-33.225,-33.221l33.225,0l-0,33.221l-33.225,-33.221Z" style="fill:#fefefe;fill-rule:nonzero;"/><rect x="5759.97" y="6160.24" width="4885.54" height="49.846" style="fill:#fefefe;"/><path d="M5759.97,6135.3l4885.51,-0l0,49.846l-4885.51,-0l-33.225,-24.938l33.225,-24.937l-0,0.029Zm-33.225,24.937l-0,-24.937l33.225,-0l-33.225,24.937Zm-0,49.846l-0,-49.846l66.475,0l0,49.846l-33.225,24.942l-33.221,-24.942l-0.029,0Zm33.225,24.942l-33.225,0l-0,-24.942l33.225,24.942Zm4885.54,0l-4885.51,0l0,-49.85l4885.51,0l33.224,24.938l-33.224,24.937l-0,-0.025Zm33.224,-24.942l0,24.942l-33.224,0l33.224,-24.942Zm0,-49.846l0,49.846l-66.475,0l-0,-49.846l33.225,-24.937l33.221,24.937l0.029,0Zm-33.224,-24.937l33.224,-0l0,24.937l-33.224,-24.937Z" style="fill:#fefefe;fill-rule:nonzero;"/><path d="M8277.52,2329.91c-91.384,191.113 -207.704,149.546 -224.329,74.788c-8.317,-66.475 91.383,-108.009 132.945,-199.421c0,-33.221 8.313,-24.937 0,-91.383c0,-58.163 0,-99.696 -41.537,-91.384c-74.783,8.313 -49.846,74.784 -58.158,141.258c-16.625,41.538 -16.625,24.938 -108.009,83.101c-174.487,116.321 -116.325,348.966 116.321,390.504c141.259,16.625 240.959,-83.1 240.959,-216.021c-0,-49.85 58.158,-174.483 -58.163,-91.383l-0.029,-0.059Z" style="fill:#2359a4;"/><path d="M8127.95,2429.63l0,340.658" style="fill:none;stroke:#9d9e9e;stroke-width:117.69px;"/><rect x="11733.9" y="6060.54" width="5649.93" height="1636.8" style="fill:#2359a4;"/><rect x="11733.9" y="6060.54" width="5649.93" height="1636.8" style="fill:none;stroke:#fefefe;stroke-width:141.21px;stroke-linecap:butt;stroke-linejoin:miter;"/><rect x="12149.4" y="6467.67" width="880.704" height="938.867" style="fill:#fefefe;"/><rect x="13254.5" y="6467.67" width="880.704" height="938.867" style="fill:#fefefe;"/><rect x="14384.4" y="6467.67" width="872.417" height="938.867" style="fill:#fefefe;"/><path d="M699.975,6251.62c490.225,415.441 1304.45,1080.12 1204.76,1703.3c-91.387,523.45 -224.333,764.408 -315.746,963.8c-216.016,515.141 398.817,764.408 664.713,706.25c274.179,-58.163 13975.3,-0 13975.3,-0l1312.77,-348.967l-0,-822.571c365.594,-880.729 1055.22,-224.333 972.115,-1994.1l-2442.77,0l-847.478,789.317l-10319.4,-0l-797.629,-997.054l-3406.57,-0l0,0.029Z" style="fill:#9d9e9e;"/><path d="M696.092,6356.02c-16.721,-14.142 -33.142,-28.034 -49.213,-41.65l-29.283,-24.813l-0,-120.337l3528.01,-0l797.634,997.054l10248.2,-0l847.479,-789.321l2553.29,0l3.688,78.517c54.255,1155.5 -215.378,1324.75 -521.388,1516.84c-156.671,98.342 -324.286,203.567 -450.403,497.429l-0,869.413c-461.363,122.646 -922.726,245.304 -1384.09,367.925l-11.379,-0.046c-39.271,-0.162 -13685.4,-58.079 -13957.6,-1.646l0.008,0.038c-108.692,23.775 -264.371,4.658 -408.108,-55.617c-88.042,-36.921 -173.03,-89.504 -241.788,-157.396c-71.716,-70.812 -125.841,-157.842 -148.362,-260.812c-22.225,-101.6 -13.388,-216.863 40.229,-344.725l1.287,-2.254c15.163,-33.067 23.625,-51.038 32.425,-69.734c86.359,-183.446 197.538,-419.612 276.884,-874.116l0.175,0.029c87.8,-556.679 -648.592,-1179.53 -1127.73,-1584.78Zm228.095,-22.046c500.642,427.491 1157.37,1035.41 1061.63,1633.82l-0,1.287c-82.988,475.354 -199.725,723.333 -290.4,915.946c-12.638,26.85 -24.871,52.838 -30.7,65.467l0.208,0.087c-39.454,94.083 -46.566,176.096 -31.221,246.258c15.184,69.413 52.688,129.088 102.667,178.438c52.933,52.262 119.717,93.308 189.662,122.642c113.571,47.625 231.713,63.791 310.288,46.608l0.321,0c277.746,-58.917 13541.6,-3.508 13981.3,-1.658l1241.45,-330.004l-0,-775.463l6.437,-15.504c146.767,-353.571 340.407,-475.121 521.195,-588.604c256.254,-160.85 482.772,-303.221 447.996,-1291.59l-2331.76,0l-847.48,789.321l-10390.6,-0l-797.629,-997.054l-3143.3,-0Z" style="fill:#fefefe;fill-rule:nonzero;"/><path d="M1896.42,7921.7l-0,24.941c-91.388,523.451 -224.334,764.409 -315.746,963.801c-216.017,515.137 398.817,764.408 672.996,706.249c265.871,-58.162 13966.9,0 13966.9,0l1312.77,-348.97l0,-822.567c124.632,-307.433 290.804,-423.754 448.662,-523.454l-16085.7,-0l0.058,-0Z" style="fill:#2359a4;"/><path d="M1825.82,7940.73l-0,-19.033l70.546,0l-0,-70.604l16329.3,-0l-206.113,130.175c-75.12,47.441 -152.071,98.687 -223.554,173.066c-68.984,71.784 -134.653,166.934 -192.016,304.546l-0,862.95c-457.963,121.746 -915.925,243.509 -1373.9,365.221l-9.749,-0.041c-39.284,-0.163 -13692.4,-58.113 -13951.8,-1.38l-0.28,0c-110.229,23.384 -266.249,4.117 -409.637,-56.012l0.042,-0.1c-87.421,-36.692 -171.43,-88.796 -239.159,-155.979c-70.096,-69.53 -122.654,-154.896 -144.062,-255.829c-20.921,-98.621 -11.846,-210.38 40.116,-334.3l1.105,-2.209c14.441,-31.504 23.25,-50.208 32.375,-69.6c86.27,-183.254 197.221,-418.971 276.75,-870.871Zm134.112,51.567c-82.287,452.071 -195.237,692.054 -283.446,879.429c-12.446,26.433 -24.458,51.958 -30.796,65.704l0.076,0.034c-40.084,95.583 -47.63,179.2 -32.396,251.008c15.287,72.067 53.804,134 105.45,185.229c53.95,53.517 122.279,95.6 194.162,125.742l0.275,-0c117.679,49.346 241.438,66.096 325.538,48.346l-0.013,-0.054c268.854,-58.817 13588.5,-3.038 13972.4,-1.421l1251.64,-332.717l-0,-782l5.243,-12.925c66.044,-162.913 143.874,-276.004 226.487,-361.967c22.554,-23.471 45.325,-44.771 68.203,-64.408l-15802.8,-0Z" style="fill:#fefefe;fill-rule:nonzero;"/><path d="M17250.9,3086l-5683.15,0l357.283,822.571l5325.86,-0l-0,-822.571Z" style="fill:#2359a4;"/><path d="M17180.3,3156.61l-5505.24,-0l295.95,681.366l5209.29,0l0,-681.366Zm-5719.84,-141.205l5861.05,0l0,963.775l-5442.44,0l-418.612,-963.775Z" style="fill:#fefefe;fill-rule:nonzero;"/><path d="M15240.2,900.817l-1138.29,-0l-0,2143.65l1620.2,-0l-481.916,-2143.65Z" style="fill:#2359a4;"/><path d="M15240.2,900.817l-1138.29,-0l-0,2143.65l1620.2,-0l-481.916,-2143.65Z" style="fill:none;stroke:#fefefe;stroke-width:117.69px;stroke-linecap:butt;stroke-linejoin:miter;"/><path d="M15223.6,1465.8l-963.833,0l0,606.55l1080.15,0l-116.32,-606.55Z" style="fill:#fefefe;"/><path d="M15223.6,1465.8l-963.833,0l0,606.55l1080.15,0l-116.32,-606.55Z" style="fill:none;stroke:#2359a4;stroke-width:117.69px;stroke-linecap:butt;stroke-linejoin:miter;"/><path d="M13736.3,3.491l166.172,2982.82l-332.342,0l166.17,-2982.82Z" style="fill:#2359a4;"/><path d="M12639.6,2978l-4470.07,-2675.42l-58.162,83.1l4071.26,2592.32l456.975,-0Z" style="fill:#2359a4;"/><path d="M8144.58,360.741l0,1836.25" style="fill:none;stroke:#2359a4;stroke-width:94.16px;"/><path d="M1946.27,3975.05c-0,274.179 -83.096,481.913 -249.267,648.083c-166.175,157.863 -373.908,232.646 -631.462,232.646l-324.03,0l0,-506.825l232.646,0c116.321,0 216.017,-41.533 290.804,-108.008c66.475,-74.787 99.7,-166.171 99.7,-282.496c0,-132.946 -33.225,-232.642 -116.325,-299.117c-74.787,-74.787 -166.171,-108.008 -274.179,-108.008c-116.321,-0 -207.708,41.533 -282.496,116.321c-74.783,83.1 -108.008,207.708 -108.008,357.279l0,1769.75l-581.612,-0l-0,-1844.53c-0,-265.866 74.787,-490.224 232.645,-664.708c174.484,-191.112 407.13,-282.496 706.246,-282.496c324.029,0 573.3,99.696 756.096,290.809c166.171,182.796 249.271,407.125 249.271,681.308l-0.029,-0Zm2151.97,1237.98l-265.87,-0l-0,581.612l-564.984,-0l0,-581.612l-781.008,-0c-124.633,-0 -216.017,-33.225 -290.804,-108.013c-66.475,-74.784 -99.696,-166.171 -99.696,-265.867c-0,-74.787 16.625,-157.858 49.846,-240.958c24.937,-58.158 58.162,-116.321 99.7,-182.796l814.254,-1370.93l564.987,-0l-972.116,1645.14l614.837,0l0,-772.721l515.138,-872.416l49.846,-0l-0,1645.14l265.87,0l0,523.45l0,-0.024Z" style="fill:#2359a4;fill-rule:nonzero;"/></g></svg>