<?xml version="1.0" encoding="UTF-8"?>
<!DOCTYPE svg PUBLIC "-//W3C//DTD SVG 1.1//EN" "http://www.w3.org/Graphics/SVG/1.1/DTD/svg11.dtd">
<!-- Creator: CorelDRAW X8 -->
<svg xmlns="http://www.w3.org/2000/svg" xml:space="preserve" width="2959.31mm" height="1659.92mm" version="1.1" style="shape-rendering:geometricPrecision; text-rendering:geometricPrecision; image-rendering:optimizeQuality; fill-rule:evenodd; clip-rule:evenodd"
viewBox="0 0 295931 165992"
 xmlns:xlink="http://www.w3.org/1999/xlink">
 <defs>
  <style type="text/css">
   <![CDATA[
    .fil3 {fill:#9D9E9E}
    .fil2 {fill:#2359A4}
    .fil0 {fill:#2359A4;fill-rule:nonzero}
    .fil1 {fill:#FFA230;fill-rule:nonzero}
   ]]>
  </style>
 </defs>
 <g id="Слой_x0020_1">
  <metadata id="CorelCorpID_0Corel-Layer"/>
  <g id="_1830249765968">
   <g>
    <path class="fil0" d="M42456 126360c0,5878 -1812,10543 -5435,13996 -3624,3452 -8203,5178 -13739,5178l-7190 0 0 -11127 5050 0c2682,0 4794,-770 6334,-2311 1541,-1541 2312,-3596 2312,-6164 0,-2852 -856,-5050 -2568,-6590 -1712,-1541 -3738,-2311 -6078,-2311 -2454,0 -4479,884 -6077,2653 -1598,1769 -2397,4365 -2397,7789l0 38519 -12668 0 0 -40145c0,-5934 1712,-10814 5136,-14637 3709,-4109 8845,-6163 15407,-6163 6962,0 12441,2140 16435,6420 3652,3938 5478,8902 5478,14893zm46909 26964l-5735 0 0 12668 -12326 0 0 -12668 -17119 0c-2682,0 -4779,-814 -6292,-2440 -1512,-1626 -2268,-3552 -2268,-5778 0,-1598 371,-3310 1113,-5135 513,-1256 1227,-2625 2140,-4109l17804 -29788 12412 0 -21314 35780 13524 0 0 -16777 11128 -19003 1198 0 0 35780 5735 0 0 11470z"/>
    <path class="fil1" d="M136873 148530c0,1655 -171,3239 -513,4751 -343,1512 -913,2982 -1712,4408 -1769,3253 -4166,5535 -7190,6848 -2226,970 -4936,1455 -8132,1455l-7361 0 0 -11984 5221 0c1655,0 2853,-142 3595,-428 1199,-456 2140,-1426 2825,-2910 399,-970 599,-2083 599,-3338 0,-856 -71,-1584 -214,-2183 -143,-599 -414,-1213 -813,-1840 -856,-1312 -1812,-2126 -2867,-2440 -1056,-314 -2611,-470 -4666,-470l-3680 0 0 -10443 1883 0c2111,0 3709,-257 4793,-771 2169,-1027 3253,-2853 3253,-5478 0,-2225 -613,-3894 -1840,-5007 -1227,-1113 -2725,-1669 -4494,-1669 -2055,0 -3681,599 -4879,1797 -1427,1427 -2140,3424 -2140,5992l0 41172 -12668 0 0 -41087c0,-6220 1783,-11084 5350,-14594 3566,-3509 8231,-5264 13994,-5264 6278,0 11185,1855 14723,5564 3081,3253 4622,7304 4622,12155 0,2967 -798,5563 -2397,7789 -913,1313 -2111,2453 -3594,3424 2796,1426 4878,3424 6248,5992 1369,2568 2054,5421 2054,8559z"/>
   </g>
   <g>
    <path class="fil2" d="M231203 150769l0 -34774c0,-355 57,-698 161,-1020l-60 -10746c-66,-260 -101,-532 -101,-811l0 -11098c0,-154 11,-305 31,-454l-211 -37439 -73805 0 0 97612c0,6825 6863,13688 13687,13688l85083 0c6824,0 13687,-6863 13687,-13688l0 -30150 -14797 -80 0 28960c0,1827 -1501,3329 -3329,3329l-17017 0c-1828,0 -3329,-1502 -3329,-3329zm-213 -102236l-6 -1009c-129,-4367 -625,-4499 -1911,-6119 -979,-1231 -3558,-2097 -6346,-2933l-47383 0c-1828,0 -3329,-1500 -3329,-3329l0 -19976c0,-1828 1501,-3329 3329,-3329l76205 0c2014,0 3329,1315 3329,3329l0 18182c5025,-20 10053,-26 14797,-7l0 -19655c0,-6824 -6863,-13687 -13687,-13687l-85083 0c-6824,0 -13687,6863 -13687,13687l0 34846 73772 0zm-29381 102236l0 -11099c0,-1828 1501,-3329 3329,-3329l17017 0c1828,0 3329,1501 3329,3329l0 11099c0,1827 -1501,3329 -3329,3329l-17017 0c-1828,0 -3329,-1502 -3329,-3329zm-29594 0l0 -11099c0,-1828 1501,-3329 3329,-3329l17017 0c1828,0 3329,1501 3329,3329l0 11099c0,1827 -1501,3329 -3329,3329l-17017 0c-1828,0 -3329,-1502 -3329,-3329zm29594 -23676l0 -11098c0,-1828 1501,-3329 3329,-3329l17017 0c1828,0 3329,1501 3329,3329l0 11098c0,1829 -1501,3330 -3329,3330l-17017 0c-1828,0 -3329,-1501 -3329,-3330zm-29594 0l0 -11098c0,-1828 1501,-3329 3329,-3329l17017 0c1828,0 3329,1501 3329,3329l0 11098c0,1829 -1501,3330 -3329,3330l-17017 0c-1828,0 -3329,-1501 -3329,-3330zm82155 -36816l23 29 2919 -7664 -26 -22 -2916 7657zm14345 -4404c349,-333 523,-789 523,-1370 0,-850 -1504,-1871 -4513,-3061 -3009,-1190 -5308,-2347 -6897,-3469 -1589,-1123 -2384,-2993 -2384,-5612 0,-2313 702,-4294 2106,-5943 109,-128 222,-252 342,-373 -140,139 -273,281 -398,429 -1404,1649 -2105,3630 -2105,5943 0,2619 794,4489 2383,5612 1589,1122 3888,2279 6897,3469 3009,1190 4513,2211 4513,3061 0,549 -155,987 -467,1314zm-4161 -22737l56 -9 0 -3210 -56 0 0 3219zm5321 31097l0 -43c-296,72 -601,142 -914,210l0 44c314,-68 618,-139 914,-211zm-970 3637l-4573 0 0 -3470c-3278,0 -6411,-1015 -9399,-3046 12,39 23,77 34,116 2961,1991 6064,2986 9309,2986l0 3470 4629 0 0 -56zm-67096 5548l0 -11098c0,-1828 1501,-3330 3329,-3330l17017 0c1828,0 3329,1502 3329,3330l0 11098c0,1828 -1501,3329 -3329,3329l-17017 0c-1828,0 -3329,-1501 -3329,-3329zm-29594 0l0 -11098c0,-1828 1501,-3330 3329,-3330l17017 0c1828,0 3329,1502 3329,3330l0 11098c0,1828 -1501,3329 -3329,3329l-17017 0c-1828,0 -3329,-1501 -3329,-3329zm29594 -23676l0 -11097c0,-1828 1501,-3329 3329,-3329l17017 0c1828,0 3329,1501 3329,3329l0 11097c0,1829 -1501,3330 -3329,3330l-17017 0c-1828,0 -3329,-1501 -3329,-3330zm-29594 0l0 -11097c0,-1828 1501,-3329 3329,-3329l17017 0c1828,0 3329,1501 3329,3329l0 11097c0,1829 -1501,3330 -3329,3330l-17017 0c-1828,0 -3329,-1501 -3329,-3330zm97660 -8705l0 -70c-669,-159 -1437,-239 -2303,-239l-1343 153c-308,0 -632,170 -971,511l-3 3c320,-305 626,-458 919,-458l1342 -153c890,0 1677,84 2359,253z"/>
    <path class="fil3" d="M172015 35143l0 -19976c0,-1828 1501,-3330 3329,-3330l76205 0c2014,0 3329,1316 3329,3330l0 18238c5020,-20 10049,-27 14797,-9l0 -19709c0,-6824 -6863,-13687 -13687,-13687l-85083 0c-6824,0 -13687,6863 -13687,13687l0 34902 73989 0 -6 -1009c-129,-4368 -625,-4500 -1911,-6119 -1000,-1259 -3672,-2135 -6530,-2989l-47416 0c-1828,0 -3329,-1500 -3329,-3329z"/>
    <path class="fil2" d="M237540 118155l58391 0 0 -72407c0,-4711 -4743,-8647 -9915,-8853 -6328,-251 -13456,13 -19874,13 -13240,0 -26479,0 -39719,0 500,309 -95,43 921,443 7728,3043 7590,3897 7590,14291l-4 61886c-9,806 70,1710 303,2503 348,1185 1042,2124 2307,2124zm16520 -27391l3147 -8265c1544,1293 3086,2279 4630,2959 1542,680 3008,1020 4397,1020 1913,0 2870,-680 2870,-2041 0,-849 -1504,-1870 -4513,-3060 -3009,-1191 -5308,-2347 -6898,-3470 -1589,-1122 -2383,-2993 -2383,-5612 0,-2312 702,-4293 2106,-5943 1404,-1650 3757,-2746 7059,-3290l0 -3266 4582 0 0 3163c2871,0 5648,851 8333,2551l-3055 7806c-648,-408 -1274,-791 -1875,-1148 -602,-357 -1180,-672 -1736,-944 -864,-374 -1960,-561 -3287,-561l-1342 153c-309,0 -633,170 -972,510 -247,341 -417,800 -509,1378 0,714 818,1479 2453,2296l5092 2193c1666,613 3163,1556 4490,2832 1327,1275 1990,2916 1990,4923 0,1973 -725,3894 -2175,5765 -648,816 -1636,1547 -2963,2194 -1234,544 -2792,1020 -4675,1428l0 3469 -4629 0 0 -3469c-3548,0 -6928,-1190 -10137,-3571z"/>
   </g>
  </g>
 </g>
</svg>
