<?xml version="1.0" encoding="UTF-8"?>
<!DOCTYPE svg PUBLIC "-//W3C//DTD SVG 1.1//EN" "http://www.w3.org/Graphics/SVG/1.1/DTD/svg11.dtd">
<!-- Creator: CorelDRAW X8 -->
<svg xmlns="http://www.w3.org/2000/svg" xml:space="preserve" width="2977.13mm" height="927.488mm" version="1.1" style="shape-rendering:geometricPrecision; text-rendering:geometricPrecision; image-rendering:optimizeQuality; fill-rule:evenodd; clip-rule:evenodd"
viewBox="0 0 297713 92749"
 xmlns:xlink="http://www.w3.org/1999/xlink">
 <defs>
  <style type="text/css">
   <![CDATA[
    .fil3 {fill:#9D9E9E}
    .fil0 {fill:#2359A4}
    .fil1 {fill:#2359A4;fill-rule:nonzero}
    .fil2 {fill:#FFA230;fill-rule:nonzero}
   ]]>
  </style>
 </defs>
 <g id="Слой_x0020_1">
  <metadata id="CorelCorpID_0Corel-Layer"/>
  <path class="fil0" d="M101030 83762l0 -19319c0,-197 31,-388 89,-567l-33 -5970c-37,-144 -56,-295 -56,-450l0 -6166c0,-86 6,-170 17,-253l-117 -20799 -41004 0 0 54230c0,3791 3813,7604 7604,7604l47269 0c3792,0 7605,-3813 7605,-7604l0 -16751 -8221 -44 0 16089c0,1015 -834,1850 -1850,1850l-9454 0c-1016,0 -1849,-835 -1849,-1850zm-119 -56799l-3 -560c-72,-2427 -347,-2500 -1062,-3400 -543,-684 -1976,-1165 -3525,-1629l-26325 0c-1015,0 -1849,-834 -1849,-1850l0 -11097c0,-1017 834,-1850 1849,-1850l42337 0c1119,0 1850,730 1850,1850l0 10101c2791,-11 5585,-15 8221,-4l0 -10920c0,-3791 -3813,-7604 -7605,-7604l-47269 0c-3791,0 -7604,3813 -7604,7604l0 19359 40985 0zm-16323 56799l0 -6166c0,-1016 834,-1850 1850,-1850l9454 0c1016,0 1849,834 1849,1850l0 6166c0,1015 -833,1850 -1849,1850l-9454 0c-1016,0 -1850,-835 -1850,-1850zm-16441 0l0 -6166c0,-1016 834,-1850 1849,-1850l9454 0c1016,0 1850,834 1850,1850l0 6166c0,1015 -834,1850 -1850,1850l-9454 0c-1015,0 -1849,-835 -1849,-1850zm16441 -13153l0 -6166c0,-1016 834,-1850 1850,-1850l9454 0c1016,0 1849,834 1849,1850l0 6166c0,1015 -833,1849 -1849,1849l-9454 0c-1016,0 -1850,-834 -1850,-1849zm-16441 0l0 -6166c0,-1016 834,-1850 1849,-1850l9454 0c1016,0 1850,834 1850,1850l0 6166c0,1015 -834,1849 -1850,1849l-9454 0c-1015,0 -1849,-834 -1849,-1849zm45642 -20454l13 16 1622 -4258 -15 -12 -1620 4254zm7970 -2447c194,-185 291,-438 291,-761 0,-472 -836,-1039 -2507,-1701 -1672,-661 -2950,-1303 -3832,-1927 -883,-623 -1325,-1663 -1325,-3118 0,-1285 390,-2385 1170,-3302 60,-70 124,-139 190,-206 -78,76 -151,156 -221,237 -780,917 -1170,2017 -1170,3302 0,1455 441,2495 1324,3118 883,624 2161,1266 3832,1927 1672,662 2508,1229 2508,1701 0,305 -87,548 -260,730zm-2312 -12632l31 -5 0 -1783 -31 0 0 1788zm2957 17277l0 -24c-165,40 -334,79 -509,117l0 24c175,-38 344,-77 509,-117zm-540 2020l-2540 0 0 -1927c-1821,0 -3562,-564 -5222,-1693 7,22 13,43 19,65 1645,1106 3369,1659 5172,1659l0 1927 2571 0 0 -31zm-37276 3083l0 -6166c0,-1016 834,-1850 1850,-1850l9454 0c1016,0 1849,834 1849,1850l0 6166c0,1015 -833,1849 -1849,1849l-9454 0c-1016,0 -1850,-834 -1850,-1849zm-16441 0l0 -6166c0,-1016 834,-1850 1849,-1850l9454 0c1016,0 1850,834 1850,1850l0 6166c0,1015 -834,1849 -1850,1849l-9454 0c-1015,0 -1849,-834 -1849,-1849zm16441 -13154l0 -6165c0,-1016 834,-1850 1850,-1850l9454 0c1016,0 1849,834 1849,1850l0 6165c0,1016 -833,1850 -1849,1850l-9454 0c-1016,0 -1850,-834 -1850,-1850zm-16441 0l0 -6165c0,-1016 834,-1850 1849,-1850l9454 0c1016,0 1850,834 1850,1850l0 6165c0,1016 -834,1850 -1850,1850l-9454 0c-1015,0 -1849,-834 -1849,-1850zm54257 -4836l0 -39c-372,-88 -799,-133 -1280,-133l-746 85c-171,0 -351,95 -540,284l-1 2c177,-170 348,-255 510,-255l746 -85c495,0 931,47 1311,141z"/>
  <path class="fil1" d="M23562 70161c0,3262 -1006,5851 -3017,7767 -2011,1916 -4552,2874 -7624,2874l-3990 0 0 -6175 2802 0c1489,0 2661,-428 3515,-1283 856,-855 1283,-1995 1283,-3420 0,-1583 -475,-2803 -1425,-3658 -950,-855 -2074,-1282 -3373,-1282 -1362,0 -2486,491 -3373,1472 -886,982 -1329,2423 -1329,4323l0 21377 -7031 0 0 -22279c0,-3294 950,-6002 2850,-8124 2059,-2280 4909,-3420 8551,-3420 3864,0 6904,1188 9120,3563 2027,2185 3041,4940 3041,8265zm26033 14964l-3183 0 0 7031 -6841 0 0 -7031 -9500 0c-1489,0 -2652,-451 -3492,-1354 -839,-902 -1259,-1971 -1259,-3206 0,-887 206,-1837 618,-2850 285,-697 681,-1457 1188,-2281l9880 -16531 6888 0 -11828 19857 7505 0 0 -9311 6176 -10546 665 0 0 19857 3183 0 0 6365z"/>
  <path class="fil2" d="M172396 82535c0,919 -95,1798 -285,2637 -190,839 -507,1655 -950,2446 -982,1805 -2312,3072 -3991,3801 -1235,538 -2739,807 -4512,807l-4086 0 0 -6650 2898 0c918,0 1583,-80 1995,-238 665,-253 1188,-792 1568,-1615 221,-538 332,-1156 332,-1853 0,-475 -39,-878 -119,-1211 -79,-332 -229,-673 -451,-1021 -475,-729 -1005,-1180 -1591,-1354 -586,-174 -1449,-261 -2589,-261l-2043 0 0 -5796 1045 0c1172,0 2059,-142 2661,-427 1203,-570 1805,-1584 1805,-3041 0,-1234 -341,-2161 -1022,-2778 -680,-618 -1512,-927 -2494,-927 -1140,0 -2042,333 -2707,998 -792,791 -1188,1900 -1188,3325l0 22849 -7030 0 0 -22802c0,-3451 989,-6151 2969,-8099 1979,-1948 4568,-2921 7766,-2921 3484,0 6208,1029 8171,3087 1710,1806 2565,4054 2565,6746 0,1647 -443,3088 -1330,4323 -507,728 -1172,1361 -1995,1900 1552,792 2707,1900 3468,3325 760,1425 1140,3009 1140,4750zm37766 -6959c0,4774 -1671,8828 -5012,12169 -3341,3333 -7402,5004 -12184,5004 -4783,0 -8844,-1671 -12185,-5004 -3341,-3341 -5012,-7395 -5012,-12169 0,-4774 1671,-8827 5012,-12169 3341,-3333 7402,-5003 12185,-5003 4782,0 8843,1670 12184,5003 3341,3342 5012,7395 5012,12169zm-7031 0c0,-2842 -981,-5273 -2945,-7299 -1963,-2019 -4370,-3033 -7220,-3033 -2851,0 -5258,998 -7221,2985 -1964,1995 -2945,4442 -2945,7347 0,2843 981,5273 2945,7300 1963,2019 4370,3032 7221,3032 2850,0 5257,-997 7220,-2985 1964,-1995 2945,-4441 2945,-7347zm44322 0c0,4774 -1671,8828 -5012,12169 -3341,3333 -7402,5004 -12184,5004 -4782,0 -8844,-1671 -12185,-5004 -3341,-3341 -5012,-7395 -5012,-12169 0,-4774 1671,-8827 5012,-12169 3341,-3333 7403,-5003 12185,-5003 4782,0 8843,1670 12184,5003 3341,3342 5012,7395 5012,12169zm-7031 0c0,-2842 -981,-5273 -2945,-7299 -1963,-2019 -4370,-3033 -7220,-3033 -2851,0 -5257,998 -7221,2985 -1963,1995 -2945,4442 -2945,7347 0,2843 982,5273 2945,7300 1964,2019 4370,3032 7221,3032 2850,0 5257,-997 7220,-2985 1964,-1995 2945,-4441 2945,-7347zm33776 -16602l-3847 10134c-476,1195 -903,2082 -1283,2652 -570,816 -1314,1496 -2233,2035 1584,348 2898,1029 3943,2050 1773,1710 2660,4236 2660,7569l0 8812 -7030 0 0 -8289c0,-2550 -634,-4260 -1900,-5154 -856,-602 -2185,-903 -3991,-903l-2280 0 0 14346 -7030 0 0 -33252 7030 0 0 12921 903 0c1235,0 2264,-475 3088,-1417 633,-729 1250,-1885 1852,-3460l2993 -8044 7125 0zm23515 24179c0,1837 -395,3420 -1187,4750 -1085,1837 -2621,3072 -4624,3706 -1267,411 -3048,617 -5328,617l-9572 0 0 -6650 9057 0c1338,0 2288,-95 2858,-285 1053,-349 1576,-1046 1576,-2091 0,-696 -269,-1345 -808,-1947 -348,-380 -1567,-1251 -3657,-2613 -2217,-1457 -3832,-2581 -4846,-3373 -1393,-1108 -2391,-2169 -2993,-3182 -791,-1299 -1187,-2819 -1187,-4560 0,-1837 459,-3452 1377,-4846 1045,-1615 2439,-2676 4181,-3183 1171,-348 2898,-522 5178,-522l8598 0 0 6650 -9121 0c-950,0 -1615,79 -1995,238 -665,285 -998,823 -998,1615 0,602 222,1172 666,1710 348,443 775,871 1282,1282 380,286 1299,887 2755,1806 2344,1425 4062,2573 5154,3444 1093,871 1908,1749 2447,2636 411,634 712,1378 902,2233 190,855 285,1710 285,2565z"/>
  <path class="fil3" d="M68147 19524l0 -11097c0,-1017 834,-1851 1849,-1851l42337 0c1119,0 1850,731 1850,1851l0 10132c2789,-11 5583,-15 8221,-5l0 -10950c0,-3791 -3813,-7604 -7605,-7604l-47269 0c-3791,0 -7604,3813 -7604,7604l0 19391 41106 0 -3 -561c-72,-2427 -348,-2500 -1062,-3400 -556,-699 -2040,-1186 -3628,-1660l-26343 0c-1015,0 -1849,-834 -1849,-1850z"/>
  <path class="fil0" d="M104550 65643l32440 0 0 -40227c0,-2617 -2635,-4804 -5508,-4919 -3516,-139 -7476,8 -11041,8 -7356,0 -14711,0 -22067,0 278,172 -52,24 512,246 4293,1691 4217,2165 4217,7939l-3 34382c-5,448 39,950 169,1391 193,658 578,1180 1281,1180zm9178 -15218l1749 -4591c857,718 1714,1266 2572,1643 857,379 1671,567 2443,567 1062,0 1594,-377 1594,-1133 0,-473 -836,-1040 -2507,-1701 -1672,-661 -2949,-1304 -3832,-1927 -883,-624 -1324,-1663 -1324,-3118 0,-1285 390,-2386 1170,-3302 780,-917 2087,-1526 3922,-1828l0 -1814 2545 0 0 1757c1595,0 3138,473 4630,1417l-1698 4337c-360,-227 -707,-439 -1042,-638 -334,-198 -655,-373 -964,-524 -480,-208 -1089,-312 -1826,-312l-745 85c-172,0 -352,94 -540,283 -138,190 -232,445 -284,766 0,396 455,822 1363,1275l2830 1219c925,340 1757,864 2494,1573 737,709 1106,1620 1106,2735 0,1096 -403,2164 -1209,3203 -360,453 -909,860 -1646,1219 -686,302 -1551,567 -2597,793l0 1928 -2572 0 0 -1928c-1971,0 -3849,-661 -5632,-1984z"/>
 </g>
</svg>
